<svg width="390" height="112" viewBox="0 0 390 112" fill="none" xmlns="http://www.w3.org/2000/svg">
<path fill-rule="evenodd" clip-rule="evenodd" d="M55.9684 94.235C77.0685 94.235 94.1734 77.1165 94.1734 55.9999C94.1734 34.8832 77.0685 17.7647 55.9684 17.7647C34.8683 17.7647 17.7633 34.8832 17.7633 55.9999C17.7633 77.1165 34.8683 94.235 55.9684 94.235ZM55.9684 95.9997C78.0423 95.9997 95.9368 78.0912 95.9368 55.9999C95.9368 33.9085 78.0423 16 55.9684 16C33.8945 16 16 33.9085 16 55.9999C16 78.0912 33.8945 95.9997 55.9684 95.9997Z" fill="url(#paint0_linear_933_3068)"/>
<path fill-rule="evenodd" clip-rule="evenodd" d="M95.4885 62.0102C90.3438 73.6827 78.6787 81.8302 65.1122 81.8302C46.7852 81.8302 31.9281 66.9615 31.9281 48.62C31.9281 32.5576 43.3223 19.1585 58.4629 16.0766C57.6379 16.0258 56.8062 16 55.9684 16C33.8945 16 16 33.9085 16 55.9999C16 78.0912 33.8945 95.9997 55.9684 95.9997C76.0011 95.9997 92.5915 81.2501 95.4885 62.0102Z" fill="url(#paint1_linear_933_3068)"/>
<path fill-rule="evenodd" clip-rule="evenodd" d="M68.2083 85.0776C75.9418 85.0776 83.1103 82.6561 88.9978 78.5293C81.8012 89.0767 69.6921 96 55.9673 96C48.2426 96 41.0297 93.8069 34.9165 90.0089C29.1727 82.8905 25.7334 73.8323 25.7334 63.9703C25.7334 55.3838 28.3405 47.4067 32.8058 40.7887C32.2306 43.3562 31.927 46.0265 31.927 48.7678C31.927 68.8212 48.1707 85.0776 68.2083 85.0776Z" fill="url(#paint2_linear_933_3068)" fill-opacity="0.4"/>
<path fill-rule="evenodd" clip-rule="evenodd" d="M58.475 80.3539C77.861 80.3539 93.5764 64.6261 93.5764 45.2249C93.5764 44.1499 93.5282 43.0862 93.4337 42.0359C95.0522 46.3832 95.9368 51.0882 95.9368 55.9999C95.9368 78.0912 78.0423 95.9998 55.9684 95.9998C33.8945 95.9998 16 78.0912 16 55.9999C16 44.5609 20.7979 34.2435 28.4895 26.9531C25.2437 32.2767 23.3736 38.5322 23.3736 45.2249C23.3736 64.6261 39.0891 80.3539 58.475 80.3539Z" fill="url(#paint3_linear_933_3068)" fill-opacity="0.5"/>
<path fill-rule="evenodd" clip-rule="evenodd" d="M43.1994 39.9362C35.5834 46.3801 30.7473 56.0122 30.7473 66.7747C30.7473 77.8202 35.841 87.675 43.8058 94.1148C47.6403 95.339 51.7261 95.9998 55.9662 95.9998C76.1635 95.9998 92.8618 81.0068 95.555 61.535C91.4864 72.1936 81.1732 79.7636 69.0933 79.7636C53.4542 79.7636 40.7762 67.0757 40.7762 51.4242C40.7762 47.3347 41.6417 43.4476 43.1994 39.9362Z" fill="#20BC1D" fill-opacity="0.6"/>
<path d="M150.52 63.765C150.52 66.0082 150.177 68.1651 149.49 70.2358C148.804 72.3065 147.796 74.1399 146.466 75.736C145.179 77.289 143.592 78.54 141.704 79.4891C139.817 80.4381 137.672 80.9126 135.27 80.9126C133.125 80.9126 131.087 80.4812 129.157 79.6185C127.27 78.7126 125.811 77.44 124.782 75.8007H124.653V80.0067H114.937V31.0874H125.489V51.2116H125.618C126.519 50.1331 127.784 49.1409 129.414 48.235C131.045 47.3291 133.039 46.8761 135.399 46.8761C137.715 46.8761 139.796 47.3291 141.64 48.235C143.528 49.1409 145.115 50.3704 146.402 51.9234C147.731 53.4764 148.74 55.2882 149.426 57.3589C150.155 59.3864 150.52 61.5218 150.52 63.765ZM140.353 63.765C140.353 62.7296 140.182 61.7159 139.838 60.7237C139.538 59.7315 139.066 58.8687 138.423 58.1354C137.779 57.3589 136.986 56.7334 136.042 56.2588C135.098 55.7843 134.004 55.547 132.76 55.547C131.559 55.547 130.487 55.7843 129.543 56.2588C128.599 56.7334 127.784 57.3589 127.098 58.1354C126.455 58.9119 125.94 59.7962 125.554 60.7884C125.211 61.7806 125.039 62.7944 125.039 63.8297C125.039 64.865 125.211 65.8788 125.554 66.871C125.94 67.8632 126.455 68.7475 127.098 69.524C127.784 70.3005 128.599 70.926 129.543 71.4005C130.487 71.8751 131.559 72.1123 132.76 72.1123C134.004 72.1123 135.098 71.8751 136.042 71.4005C136.986 70.926 137.779 70.3005 138.423 69.524C139.066 68.7475 139.538 67.8632 139.838 66.871C140.182 65.8356 140.353 64.8003 140.353 63.765Z" fill="#212924"/>
<path d="M176.141 65.9651H174.79C173.631 65.9651 172.452 66.0298 171.251 66.1592C170.092 66.2455 169.041 66.4396 168.098 66.7416C167.197 67.0435 166.446 67.4965 165.846 68.1004C165.245 68.6612 164.945 69.4162 164.945 70.3652C164.945 70.9692 165.073 71.4868 165.331 71.9182C165.631 72.3496 165.996 72.6947 166.425 72.9535C166.854 73.2124 167.347 73.4065 167.905 73.5359C168.462 73.6222 168.998 73.6653 169.513 73.6653C171.658 73.6653 173.288 73.083 174.403 71.9182C175.562 70.7103 176.141 69.0926 176.141 67.0651V65.9651ZM156.773 52.1822C158.66 50.3704 160.848 49.0115 163.336 48.1056C165.867 47.1997 168.441 46.7467 171.058 46.7467C173.76 46.7467 176.034 47.0918 177.878 47.7821C179.766 48.4291 181.288 49.4645 182.447 50.8881C183.605 52.2685 184.441 54.0372 184.956 56.1941C185.514 58.3079 185.793 60.8315 185.793 63.765V80.0067H176.141V76.5772H175.948C175.133 77.9145 173.889 78.9498 172.216 79.6832C170.586 80.4165 168.805 80.7832 166.875 80.7832C165.588 80.7832 164.258 80.6107 162.886 80.2656C161.513 79.9205 160.247 79.3596 159.089 78.5831C157.974 77.8066 157.052 76.7713 156.322 75.4772C155.593 74.183 155.229 72.5869 155.229 70.6888C155.229 68.3593 155.851 66.4827 157.095 65.0591C158.381 63.6356 160.012 62.5355 161.985 61.759C164.001 60.9825 166.232 60.4649 168.677 60.206C171.122 59.9472 173.503 59.8178 175.819 59.8178V59.3001C175.819 57.704 175.261 56.5392 174.146 55.8059C173.031 55.0294 171.658 54.6411 170.028 54.6411C168.527 54.6411 167.068 54.9647 165.653 55.6118C164.28 56.2588 163.1 57.0353 162.114 57.9412L156.773 52.1822Z" fill="#212924"/>
<path d="M205.122 37.4935C205.122 38.3131 204.951 39.0896 204.608 39.823C204.307 40.5132 203.878 41.1171 203.321 41.6348C202.806 42.1525 202.162 42.5623 201.39 42.8642C200.661 43.1662 199.889 43.3172 199.074 43.3172C197.358 43.3172 195.921 42.7564 194.763 41.6348C193.605 40.47 193.025 39.0896 193.025 37.4935C193.025 36.717 193.176 35.9836 193.476 35.2934C193.776 34.56 194.205 33.9345 194.763 33.4169C195.32 32.8992 195.964 32.4894 196.693 32.1874C197.422 31.8423 198.216 31.6697 199.074 31.6697C199.889 31.6697 200.661 31.8207 201.39 32.1227C202.162 32.4247 202.806 32.8345 203.321 33.3521C203.878 33.8698 204.307 34.4953 204.608 35.2287C204.951 35.9189 205.122 36.6738 205.122 37.4935ZM193.798 80.0067V47.7821H204.35V80.0067H193.798Z" fill="#212924"/>
<path d="M247.133 80.0067H234.071L223.583 64.5415H223.39V80.0067H212.773V31.0874H223.39V60.8531H223.583L233.814 47.7821H246.619L234.264 62.3414L247.133 80.0067Z" fill="#212924"/>
<path d="M269.517 65.9651H268.166C267.008 65.9651 265.828 66.0298 264.627 66.1592C263.469 66.2455 262.418 66.4396 261.474 66.7416C260.573 67.0435 259.822 67.4965 259.222 68.1004C258.621 68.6612 258.321 69.4162 258.321 70.3652C258.321 70.9692 258.45 71.4868 258.707 71.9182C259.007 72.3496 259.372 72.6947 259.801 72.9535C260.23 73.2124 260.723 73.4065 261.281 73.5359C261.838 73.6222 262.375 73.6653 262.889 73.6653C265.034 73.6653 266.664 73.083 267.78 71.9182C268.938 70.7103 269.517 69.0926 269.517 67.0651V65.9651ZM250.149 52.1822C252.037 50.3704 254.224 49.0115 256.712 48.1056C259.243 47.1997 261.817 46.7467 264.434 46.7467C267.136 46.7467 269.41 47.0918 271.254 47.7821C273.142 48.4291 274.665 49.4645 275.823 50.8881C276.981 52.2685 277.818 54.0372 278.332 56.1941C278.89 58.3079 279.169 60.8315 279.169 63.765V80.0067H269.517V76.5772H269.324C268.509 77.9145 267.265 78.9498 265.592 79.6832C263.962 80.4165 262.182 80.7832 260.251 80.7832C258.964 80.7832 257.635 80.6107 256.262 80.2656C254.889 79.9205 253.624 79.3596 252.465 78.5831C251.35 77.8066 250.428 76.7713 249.699 75.4772C248.969 74.183 248.605 72.5869 248.605 70.6888C248.605 68.3593 249.227 66.4827 250.471 65.0591C251.758 63.6356 253.388 62.5355 255.361 61.759C257.377 60.9825 259.608 60.4649 262.053 60.206C264.498 59.9472 266.879 59.8178 269.195 59.8178V59.3001C269.195 57.704 268.638 56.5392 267.522 55.8059C266.407 55.0294 265.034 54.6411 263.404 54.6411C261.903 54.6411 260.444 54.9647 259.029 55.6118C257.656 56.2588 256.476 57.0353 255.49 57.9412L250.149 52.1822Z" fill="#212924"/>
<path d="M287.174 80.0067V31.0874H297.855V80.0067H287.174Z" fill="#212924"/>
<path d="M318.243 74.3124C318.243 76.1242 317.6 77.6341 316.313 78.842C315.069 80.0499 313.567 80.6538 311.809 80.6538C310.908 80.6538 310.05 80.4813 309.235 80.1361C308.463 79.8342 307.776 79.4028 307.176 78.842C306.575 78.2812 306.103 77.6341 305.76 76.9007C305.417 76.1242 305.245 75.283 305.245 74.3771C305.245 73.5143 305.417 72.6947 305.76 71.9182C306.103 71.1417 306.575 70.4731 307.176 69.9123C307.776 69.3083 308.463 68.8338 309.235 68.4887C310.05 68.1436 310.908 67.971 311.809 67.971C313.567 67.971 315.069 68.575 316.313 69.7828C317.6 70.9907 318.243 72.5006 318.243 74.3124Z" fill="#19AA4A"/>
<path d="M344.419 65.9651H343.068C341.91 65.9651 340.73 66.0298 339.529 66.1592C338.371 66.2455 337.32 66.4396 336.376 66.7416C335.475 67.0435 334.724 67.4965 334.124 68.1004C333.523 68.6612 333.223 69.4162 333.223 70.3652C333.223 70.9692 333.352 71.4868 333.609 71.9182C333.909 72.3496 334.274 72.6947 334.703 72.9535C335.132 73.2124 335.625 73.4065 336.183 73.5359C336.741 73.6222 337.277 73.6653 337.792 73.6653C339.936 73.6653 341.566 73.083 342.682 71.9182C343.84 70.7103 344.419 69.0926 344.419 67.0651V65.9651ZM325.051 52.1822C326.939 50.3704 329.126 49.0115 331.614 48.1056C334.145 47.1997 336.719 46.7467 339.336 46.7467C342.038 46.7467 344.312 47.0918 346.156 47.7821C348.044 48.4291 349.567 49.4645 350.725 50.8881C351.883 52.2685 352.72 54.0372 353.234 56.1941C353.792 58.3079 354.071 60.8315 354.071 63.765V80.0067H344.419V76.5772H344.226C343.411 77.9145 342.167 78.9498 340.494 79.6832C338.864 80.4165 337.084 80.7832 335.153 80.7832C333.866 80.7832 332.537 80.6107 331.164 80.2656C329.791 79.9205 328.526 79.3596 327.368 78.5831C326.252 77.8066 325.33 76.7713 324.601 75.4772C323.871 74.183 323.507 72.5869 323.507 70.6888C323.507 68.3593 324.129 66.4827 325.373 65.0591C326.66 63.6356 328.29 62.5355 330.263 61.759C332.279 60.9825 334.51 60.4649 336.955 60.206C339.4 59.9472 341.781 59.8178 344.097 59.8178V59.3001C344.097 57.704 343.54 56.5392 342.424 55.8059C341.309 55.0294 339.936 54.6411 338.306 54.6411C336.805 54.6411 335.346 54.9647 333.931 55.6118C332.558 56.2588 331.378 57.0353 330.392 57.9412L325.051 52.1822Z" fill="#212924"/>
<path d="M373.401 37.4935C373.401 38.3131 373.229 39.0896 372.886 39.823C372.586 40.5132 372.157 41.1171 371.599 41.6348C371.084 42.1525 370.441 42.5623 369.669 42.8642C368.939 43.1662 368.167 43.3172 367.352 43.3172C365.636 43.3172 364.199 42.7564 363.041 41.6348C361.883 40.47 361.304 39.0896 361.304 37.4935C361.304 36.717 361.454 35.9836 361.754 35.2934C362.054 34.56 362.483 33.9345 363.041 33.4169C363.599 32.8992 364.242 32.4894 364.971 32.1874C365.701 31.8423 366.494 31.6697 367.352 31.6697C368.167 31.6697 368.939 31.8207 369.669 32.1227C370.441 32.4247 371.084 32.8345 371.599 33.3521C372.157 33.8698 372.586 34.4953 372.886 35.2287C373.229 35.9189 373.401 36.6738 373.401 37.4935ZM362.076 80.0067V47.7821H372.629V80.0067H362.076Z" fill="#212924"/>
<defs>
<linearGradient id="paint0_linear_933_3068" x1="55.9684" y1="18.8571" x2="55.9684" y2="95.9997" gradientUnits="userSpaceOnUse">
<stop stop-color="#A3EEB5"/>
<stop offset="1" stop-color="#71FF87"/>
</linearGradient>
<linearGradient id="paint1_linear_933_3068" x1="55.7443" y1="16" x2="55.7443" y2="95.9997" gradientUnits="userSpaceOnUse">
<stop stop-color="#A3EEB5"/>
<stop offset="1" stop-color="#20BC1D"/>
</linearGradient>
<linearGradient id="paint2_linear_933_3068" x1="57.3656" y1="40.7887" x2="57.3656" y2="96" gradientUnits="userSpaceOnUse">
<stop stop-color="#1FDA79"/>
<stop offset="1" stop-color="#082D1A"/>
</linearGradient>
<linearGradient id="paint3_linear_933_3068" x1="55.9684" y1="26.9531" x2="55.9684" y2="95.9998" gradientUnits="userSpaceOnUse">
<stop stop-color="#22CC51"/>
<stop offset="1" stop-color="#19AA4A"/>
</linearGradient>
</defs>
</svg>
