<svg width="249" height="426" viewBox="0 0 249 426" fill="none" xmlns="http://www.w3.org/2000/svg">
<path d="M121.07 177.824C121.07 177.824 105.793 188.158 100.89 204.073C100.89 204.073 107.431 203.591 109.494 205.548C109.494 205.548 115.233 185.464 121.07 177.824Z" fill="url(#paint0_linear_1223_3477)"/>
<path d="M93.251 53.9598C93.251 53.9598 75.2336 65.6838 76.8003 87.5685C78.367 109.453 93.251 112.58 93.251 112.58L113.618 68.8102L93.251 53.9598Z" fill="#031B56"/>
<path d="M115.185 67.247C115.185 67.247 91.6843 82.0974 91.6843 120.396C91.6843 158.694 130.853 161.039 130.853 161.039C130.853 161.039 127.719 171.199 123.019 176.671L147.303 178.234L168.454 170.418C168.454 170.418 166.887 164.165 167.671 156.349C167.671 156.349 178.638 154.004 193.522 141.499L203.706 101.637C203.706 101.637 167.671 96.9477 166.104 50.0519C166.104 50.0519 137.08 67.247 115.185 67.247Z" fill="url(#paint1_linear_1223_3477)"/>
<path d="M87.7672 14.879C87.7672 14.8796 87.7674 14.8794 87.7672 14.8799C87.7604 14.8975 73.6728 50.8372 98.7344 66.4653C122.666 81.3889 148.026 72.0921 162.544 58.2973C163.227 57.6484 164.462 58.1721 164.47 59.1142C164.546 68.3169 167.22 97.3014 197.438 103.2L240.523 104.764C240.523 104.764 260.108 82.0973 239.74 50.0518C239.74 50.0518 231.906 35.2014 213.106 32.0751C213.106 32.0751 204.481 0.9753 168.454 0.0295673C146.128 -0.556631 133.939 7.69704 129.239 13.8169C127.296 16.3415 122.267 21.3125 119.196 22.1644C110.604 24.5636 101.831 23.806 87.7732 14.8759C87.7707 14.8743 87.7672 14.876 87.7672 14.879Z" fill="url(#paint2_linear_1223_3477)"/>
<path d="M181.771 116.488C181.771 116.488 191.172 96.166 220.156 96.166C249.141 96.166 253.057 121.959 236.607 140.717C220.156 159.475 195.088 157.131 182.555 147.751L181.771 116.488Z" fill="#FFB5B6"/>
<path d="M195.872 125.085C195.872 125.085 203.275 103.919 226.384 107.437" stroke="url(#paint3_linear_1223_3477)" stroke-width="2" stroke-miterlimit="10" stroke-linecap="round"/>
<g filter="url(#filter0_d_1223_3477)">
<path d="M110.461 108.86C112.354 95.1763 107.962 83.2673 100.65 82.2602C93.3388 81.2531 85.8768 91.5294 83.9835 105.213C82.0902 118.896 86.4826 130.805 93.7941 131.812C101.106 132.82 108.568 122.543 110.461 108.86Z" stroke="white" stroke-width="3" stroke-miterlimit="10"/>
<path d="M157.354 113.576C159.242 99.9264 153.64 87.879 144.842 86.6671C136.043 85.4552 127.379 95.5377 125.491 109.187C123.602 122.836 129.204 134.884 138.003 136.095C146.801 137.307 155.465 127.225 157.354 113.576Z" stroke="white" stroke-width="3" stroke-miterlimit="10"/>
<path d="M110.461 109.649C110.461 109.649 114.41 112.587 125.494 110.751" stroke="white" stroke-width="3" stroke-miterlimit="10"/>
</g>
<path d="M109.707 132.829C109.707 132.829 115.537 142.999 126.641 134.574" stroke="url(#paint4_linear_1223_3477)" stroke-width="2" stroke-miterlimit="10" stroke-linecap="round"/>
<path d="M103.395 119.161C104.91 119.161 106.137 116.186 106.137 112.517C106.137 108.848 104.91 105.873 103.395 105.873C101.881 105.873 100.654 108.848 100.654 112.517C100.654 116.186 101.881 119.161 103.395 119.161Z" fill="#27283A"/>
<path d="M135.122 121.505C136.852 121.505 138.255 118.356 138.255 114.471C138.255 110.586 136.852 107.437 135.122 107.437C133.391 107.437 131.988 110.586 131.988 114.471C131.988 118.356 133.391 121.505 135.122 121.505Z" fill="#27283A"/>
<path d="M88.5506 284.531C88.5506 284.531 87.7672 303.289 101.868 327.519C115.968 351.748 125.369 397.081 124.585 407.242C124.585 407.242 98.7343 407.242 85.4171 426H241.307C241.307 426 227.206 407.242 204.489 405.679C204.489 405.679 171.587 361.128 173.937 291.565C173.937 291.565 121.452 304.071 88.5506 284.531Z" fill="url(#paint5_linear_1223_3477)"/>
<path d="M101.868 308.76C101.868 308.76 112.835 325.174 129.286 329.082L171.854 425.727" stroke="url(#paint6_linear_1223_3477)" stroke-width="1.11" stroke-miterlimit="10"/>
<path d="M123.019 176.671C123.019 176.671 99.5181 196.992 88.551 243.888C88.551 243.888 83.8508 262.646 86.9842 285.313C86.9842 285.313 102.166 308.495 174.478 294.559C174.478 294.559 180.205 252.486 188.038 229.819C195.872 207.153 185.688 186.831 168.454 170.418C168.454 170.418 149.653 174.326 135.553 183.705L123.019 176.671Z" fill="white"/>
<g filter="url(#filter1_d_1223_3477)">
<path d="M134.84 184.15C137.401 181.11 146.261 173.411 168.148 169.269C168.148 169.269 171.893 171.918 174.486 176.248C174.486 176.248 157.495 179.797 145.744 203.245C145.744 203.245 137.895 195.413 134.456 186.542C134.143 185.729 134.284 184.823 134.84 184.15Z" fill="white"/>
</g>
<g filter="url(#filter2_d_1223_3477)">
<path d="M114.551 195.135C114.551 195.135 100.45 217.801 94.183 240.468C94.183 240.468 90.2662 252.973 102.8 272.513C102.8 272.513 121.601 243.594 129.434 238.904C129.434 238.904 124.734 206.077 124.734 196.698C124.734 196.698 122.384 194.353 114.551 195.135Z" fill="url(#paint7_linear_1223_3477)"/>
</g>
<path d="M114.347 195.452C114.19 192.764 114.229 183.509 121.256 177.468C121.867 176.944 122.627 176.608 123.426 176.522C125.941 176.264 131.714 175.912 141.937 177.397C142.407 177.468 142.579 178.062 142.211 178.367C139.132 180.883 129.513 189.074 125.196 196.656C124.875 197.227 124.162 197.422 123.567 197.141C122.306 196.547 119.815 195.788 115.154 196.148C114.731 196.179 114.37 195.874 114.339 195.452H114.347Z" fill="url(#paint8_linear_1223_3477)"/>
<path d="M181.826 186.802C181.826 186.802 157.056 189.201 151.572 226.718C151.572 226.718 138.255 229.844 112.404 207.178C112.404 207.178 100.654 207.178 98.3036 225.936C98.3036 225.936 113.188 266.579 159.406 270.487C205.625 274.395 201.708 235.315 201.708 235.315C201.708 235.315 201.112 210.195 181.826 186.802Z" fill="white"/>
<path d="M181.473 186.777C181.473 186.777 164.631 186.73 154.009 213.742" stroke="url(#paint9_linear_1223_3477)" stroke-width="2" stroke-miterlimit="10" stroke-linecap="round"/>
<path d="M84.2032 199.117C84.2032 199.117 102.149 191.524 112.404 207.554C112.404 207.554 98.731 210.085 97.0219 227.803L84.2032 199.117Z" fill="url(#paint10_linear_1223_3477)"/>
<g filter="url(#filter3_d_1223_3477)">
<path d="M82.2838 192.302L105.001 160.257L113.618 165.728L86.9919 203.511L82.2838 192.302Z" fill="url(#paint11_linear_1223_3477)"/>
</g>
<g filter="url(#filter4_d_1223_3477)">
<path d="M113.636 165.708C114.486 164.473 113.29 162.181 110.965 160.587C108.64 158.993 106.066 158.702 105.216 159.937C104.366 161.171 105.562 163.464 107.887 165.058C110.212 166.651 112.786 166.943 113.636 165.708Z" fill="url(#paint12_linear_1223_3477)"/>
</g>
<path d="M94.05 177.054C94.05 177.054 96.3453 181.712 101.469 181.712" stroke="url(#paint13_linear_1223_3477)" stroke-width="0.99" stroke-miterlimit="10" stroke-linecap="round"/>
<path d="M108.299 173.529C108.299 173.529 112.052 174.326 108.918 179.015L98.7343 193.084" stroke="url(#paint14_linear_1223_3477)" stroke-width="0.99" stroke-miterlimit="10" stroke-linecap="round"/>
<g filter="url(#filter5_d_1223_3477)">
<path d="M15.4785 164.884L67.6193 163.422C68.434 163.399 69.1939 163.868 69.5386 164.61L106.404 244.185C106.842 245.138 106.137 246.225 105.088 246.209L56.4407 245.459L14.3583 166.83C13.8961 165.97 14.5072 164.923 15.4864 164.892L15.4785 164.884Z" fill="white"/>
</g>
<path d="M25.4429 164.134L25.8424 173.482L51.7326 172.762L45.3874 162.711C44.9487 162.148 44.2594 161.836 43.5465 161.867L27.4797 162.531C26.524 162.57 25.7092 163.219 25.4429 164.134Z" fill="url(#paint15_linear_1223_3477)"/>
<g filter="url(#filter6_d_1223_3477)">
<path d="M10.4479 170.716L64.7146 169.184C65.9039 169.151 66.994 169.838 67.4812 170.931L103.645 252.116C104.124 253.193 103.331 254.401 102.159 254.377L51.8231 253.59L9.17609 172.918C8.6558 171.941 9.34951 170.749 10.4561 170.724L10.4479 170.716Z" fill="url(#paint16_linear_1223_3477)"/>
</g>
<path d="M29.7983 229.819C29.7983 229.819 31.3651 212.624 43.8989 208.716C56.4328 204.808 59.5662 216.532 59.5662 219.658C59.5662 219.658 80.8189 228.123 74.505 254.377L86.7803 254.564C86.7803 254.564 86.6315 258.668 86.0283 263.389C86.0283 263.389 68.1911 279.841 42.34 261.865C42.34 261.865 26.6727 251.704 29.8062 229.819H29.7983Z" fill="url(#paint17_linear_1223_3477)"/>
<path d="M152.356 159.022C140.214 161.758 135.905 161.367 130.813 160.976L127.68 169.574C135.681 170.072 143.534 167.256 149.394 161.786L152.356 159.022Z" fill="#FF9395"/>
<path d="M178.598 269.227C150.084 275.793 130.944 264.928 124.938 258.676C138.098 280.56 164.89 282.645 176.64 280.951L178.598 269.227Z" fill="#EEEEEE"/>
<path d="M132.178 221.251C135.584 222.947 143.959 226.455 150.208 226.929C152.752 226.569 161.364 226.929 162.931 234.446" stroke="url(#paint18_linear_1223_3477)" stroke-width="2" stroke-linecap="round"/>
<path d="M48.9516 229.757C49.4738 226.5 52.32 219.909 59.527 219.596" stroke="url(#paint19_linear_1223_3477)" stroke-width="2" stroke-miterlimit="10" stroke-linecap="round"/>
<path fill-rule="evenodd" clip-rule="evenodd" d="M49.7346 111.345C39.8063 111.345 31.7172 119.393 31.7172 129.321C31.7172 137.909 37.7694 145.09 45.8289 146.873C45.8492 146.93 45.8751 146.986 45.9068 147.04L49.2609 152.837C49.646 153.502 50.6068 153.502 50.9919 152.837L54.346 147.04C54.4158 146.92 54.4573 146.793 54.4737 146.668C62.1135 144.589 67.752 137.611 67.752 129.321C67.752 119.393 59.6629 111.345 49.7346 111.345Z" fill="url(#paint20_linear_1223_3477)"/>
<path d="M51.597 132.663C51.597 133.518 51.0503 133.945 49.9568 133.945C48.8998 133.945 48.3713 133.518 48.3713 132.663V119.299C48.3713 118.426 48.8998 117.99 49.9568 117.99C51.0503 117.99 51.597 118.426 51.597 119.299V132.663ZM52.1984 137.573C52.1984 138.209 51.9797 138.746 51.5423 139.182C51.1232 139.6 50.6038 139.81 49.9841 139.81C49.3645 139.81 48.836 139.6 48.3986 139.182C47.9794 138.746 47.7699 138.209 47.7699 137.573C47.7699 136.955 47.9794 136.437 48.3986 136.018C48.836 135.6 49.3645 135.391 49.9841 135.391C50.6038 135.391 51.1232 135.6 51.5423 136.018C51.9797 136.437 52.1984 136.955 52.1984 137.573Z" fill="white"/>
<path d="M201.708 33.003C206.408 31.049 211.5 31.8306 213.458 32.2214C212.675 30.4493 212.283 29.2769 211.5 27.9226C210.325 27.5318 204.058 27.9226 201.708 33.003Z" fill="#01237D"/>
<defs>
<filter id="filter0_d_1223_3477" x="81.0435" y="79.691" width="87.1765" height="67.0039" filterUnits="userSpaceOnUse" color-interpolation-filters="sRGB">
<feFlood flood-opacity="0" result="BackgroundImageFix"/>
<feColorMatrix in="SourceAlpha" type="matrix" values="0 0 0 0 0 0 0 0 0 0 0 0 0 0 0 0 0 0 127 0" result="hardAlpha"/>
<feOffset dx="4" dy="4"/>
<feGaussianBlur stdDeviation="2.5"/>
<feComposite in2="hardAlpha" operator="out"/>
<feColorMatrix type="matrix" values="0 0 0 0 1 0 0 0 0 0.677778 0 0 0 0 0.681857 0 0 0 1 0"/>
<feBlend mode="normal" in2="BackgroundImageFix" result="effect1_dropShadow_1223_3477"/>
<feBlend mode="normal" in="SourceGraphic" in2="effect1_dropShadow_1223_3477" result="shape"/>
</filter>
<filter id="filter1_d_1223_3477" x="127.292" y="163.269" width="54.1937" height="47.9761" filterUnits="userSpaceOnUse" color-interpolation-filters="sRGB">
<feFlood flood-opacity="0" result="BackgroundImageFix"/>
<feColorMatrix in="SourceAlpha" type="matrix" values="0 0 0 0 0 0 0 0 0 0 0 0 0 0 0 0 0 0 127 0" result="hardAlpha"/>
<feOffset dy="1"/>
<feGaussianBlur stdDeviation="3.5"/>
<feComposite in2="hardAlpha" operator="out"/>
<feColorMatrix type="matrix" values="0 0 0 0 0.725145 0 0 0 0 0.725145 0 0 0 0 0.725145 0 0 0 0.57 0"/>
<feBlend mode="normal" in2="BackgroundImageFix" result="effect1_dropShadow_1223_3477"/>
<feBlend mode="normal" in="SourceGraphic" in2="effect1_dropShadow_1223_3477" result="shape"/>
</filter>
<filter id="filter2_d_1223_3477" x="81.6036" y="186.975" width="59.8309" height="101.538" filterUnits="userSpaceOnUse" color-interpolation-filters="sRGB">
<feFlood flood-opacity="0" result="BackgroundImageFix"/>
<feColorMatrix in="SourceAlpha" type="matrix" values="0 0 0 0 0 0 0 0 0 0 0 0 0 0 0 0 0 0 127 0" result="hardAlpha"/>
<feOffset dy="4"/>
<feGaussianBlur stdDeviation="6"/>
<feComposite in2="hardAlpha" operator="out"/>
<feColorMatrix type="matrix" values="0 0 0 0 0.870848 0 0 0 0 0.870848 0 0 0 0 0.870848 0 0 0 1 0"/>
<feBlend mode="normal" in2="BackgroundImageFix" result="effect1_dropShadow_1223_3477"/>
<feBlend mode="normal" in="SourceGraphic" in2="effect1_dropShadow_1223_3477" result="shape"/>
</filter>
<filter id="filter3_d_1223_3477" x="73.2838" y="149.257" width="49.3346" height="61.2535" filterUnits="userSpaceOnUse" color-interpolation-filters="sRGB">
<feFlood flood-opacity="0" result="BackgroundImageFix"/>
<feColorMatrix in="SourceAlpha" type="matrix" values="0 0 0 0 0 0 0 0 0 0 0 0 0 0 0 0 0 0 127 0" result="hardAlpha"/>
<feOffset dy="-2"/>
<feGaussianBlur stdDeviation="4.5"/>
<feComposite in2="hardAlpha" operator="out"/>
<feColorMatrix type="matrix" values="0 0 0 0 0 0 0 0 0 0 0 0 0 0 0 0 0 0 0.23 0"/>
<feBlend mode="normal" in2="BackgroundImageFix" result="effect1_dropShadow_1223_3477"/>
<feBlend mode="normal" in="SourceGraphic" in2="effect1_dropShadow_1223_3477" result="shape"/>
</filter>
<filter id="filter4_d_1223_3477" x="95.9423" y="148.172" width="26.9671" height="25.3008" filterUnits="userSpaceOnUse" color-interpolation-filters="sRGB">
<feFlood flood-opacity="0" result="BackgroundImageFix"/>
<feColorMatrix in="SourceAlpha" type="matrix" values="0 0 0 0 0 0 0 0 0 0 0 0 0 0 0 0 0 0 127 0" result="hardAlpha"/>
<feOffset dy="-2"/>
<feGaussianBlur stdDeviation="4.5"/>
<feComposite in2="hardAlpha" operator="out"/>
<feColorMatrix type="matrix" values="0 0 0 0 0 0 0 0 0 0 0 0 0 0 0 0 0 0 0.23 0"/>
<feBlend mode="normal" in2="BackgroundImageFix" result="effect1_dropShadow_1223_3477"/>
<feBlend mode="normal" in="SourceGraphic" in2="effect1_dropShadow_1223_3477" result="shape"/>
</filter>
<filter id="filter5_d_1223_3477" x="4.20113" y="152.422" width="112.335" height="102.788" filterUnits="userSpaceOnUse" color-interpolation-filters="sRGB">
<feFlood flood-opacity="0" result="BackgroundImageFix"/>
<feColorMatrix in="SourceAlpha" type="matrix" values="0 0 0 0 0 0 0 0 0 0 0 0 0 0 0 0 0 0 127 0" result="hardAlpha"/>
<feOffset dy="-1"/>
<feGaussianBlur stdDeviation="5"/>
<feComposite in2="hardAlpha" operator="out"/>
<feColorMatrix type="matrix" values="0 0 0 0 0.479734 0 0 0 0 0.577014 0 0 0 0 0.666811 0 0 0 0.71 0"/>
<feBlend mode="normal" in2="BackgroundImageFix" result="effect1_dropShadow_1223_3477"/>
<feBlend mode="normal" in="SourceGraphic" in2="effect1_dropShadow_1223_3477" result="shape"/>
</filter>
<filter id="filter6_d_1223_3477" x="-7.62939e-06" y="158.183" width="112.787" height="103.194" filterUnits="userSpaceOnUse" color-interpolation-filters="sRGB">
<feFlood flood-opacity="0" result="BackgroundImageFix"/>
<feColorMatrix in="SourceAlpha" type="matrix" values="0 0 0 0 0 0 0 0 0 0 0 0 0 0 0 0 0 0 127 0" result="hardAlpha"/>
<feOffset dy="-2"/>
<feGaussianBlur stdDeviation="4.5"/>
<feComposite in2="hardAlpha" operator="out"/>
<feColorMatrix type="matrix" values="0 0 0 0 0 0 0 0 0 0 0 0 0 0 0 0 0 0 0.23 0"/>
<feBlend mode="normal" in2="BackgroundImageFix" result="effect1_dropShadow_1223_3477"/>
<feBlend mode="normal" in="SourceGraphic" in2="effect1_dropShadow_1223_3477" result="shape"/>
</filter>
<linearGradient id="paint0_linear_1223_3477" x1="115.951" y1="181.319" x2="111.362" y2="209.962" gradientUnits="userSpaceOnUse">
<stop stop-color="#ABD1FF"/>
<stop offset="1" stop-color="#EBEBEB"/>
</linearGradient>
<linearGradient id="paint1_linear_1223_3477" x1="104.167" y1="67.9018" x2="228.988" y2="141.814" gradientUnits="userSpaceOnUse">
<stop stop-color="#FFA8A9"/>
<stop offset="0.302865" stop-color="#FFCBCB"/>
<stop offset="0.62385" stop-color="#FFB5B6"/>
<stop offset="1" stop-color="#FFB5B6"/>
</linearGradient>
<linearGradient id="paint2_linear_1223_3477" x1="170.177" y1="2.30371" x2="192.988" y2="105.679" gradientUnits="userSpaceOnUse">
<stop stop-color="#014DC0"/>
<stop offset="1" stop-color="#00237C"/>
</linearGradient>
<linearGradient id="paint3_linear_1223_3477" x1="226.703" y1="107.358" x2="195.379" y2="123.86" gradientUnits="userSpaceOnUse">
<stop stop-color="#FF8B8C"/>
</linearGradient>
<linearGradient id="paint4_linear_1223_3477" x1="125.012" y1="127.875" x2="112.627" y2="141.277" gradientUnits="userSpaceOnUse">
<stop stop-color="#FF8B8C"/>
<stop offset="1" stop-color="#C46267"/>
</linearGradient>
<linearGradient id="paint5_linear_1223_3477" x1="163.362" y1="284.531" x2="163.362" y2="426" gradientUnits="userSpaceOnUse">
<stop stop-color="#0053CF"/>
<stop offset="1" stop-color="#002E74"/>
</linearGradient>
<linearGradient id="paint6_linear_1223_3477" x1="104.578" y1="312.208" x2="171.437" y2="426.493" gradientUnits="userSpaceOnUse">
<stop stop-color="#0149B6"/>
<stop offset="0.444443" stop-color="#67A4FF"/>
<stop offset="1" stop-color="#002F75"/>
</linearGradient>
<linearGradient id="paint7_linear_1223_3477" x1="119.212" y1="194.682" x2="102.442" y2="272.857" gradientUnits="userSpaceOnUse">
<stop stop-color="#FF7382"/>
<stop offset="0.55382" stop-color="#FF545F"/>
<stop offset="1" stop-color="#FF5E5E"/>
</linearGradient>
<linearGradient id="paint8_linear_1223_3477" x1="128.36" y1="176.29" x2="128.36" y2="197.433" gradientUnits="userSpaceOnUse">
<stop stop-color="#FF7684"/>
<stop offset="1" stop-color="#FF5E5E"/>
</linearGradient>
<linearGradient id="paint9_linear_1223_3477" x1="182.696" y1="186.783" x2="167.732" y2="217.13" gradientUnits="userSpaceOnUse">
<stop stop-color="#EEEEEE" stop-opacity="0"/>
<stop offset="0.480902" stop-color="#E8E8E8"/>
<stop offset="1" stop-color="#D0D0D0" stop-opacity="0"/>
</linearGradient>
<linearGradient id="paint10_linear_1223_3477" x1="98.3037" y1="197.32" x2="98.3037" y2="227.803" gradientUnits="userSpaceOnUse">
<stop stop-color="#FFB5B6"/>
<stop offset="1" stop-color="#FFABAC"/>
</linearGradient>
<linearGradient id="paint11_linear_1223_3477" x1="97.9511" y1="160.257" x2="97.9511" y2="203.511" gradientUnits="userSpaceOnUse">
<stop stop-color="#193D5A"/>
<stop offset="1" stop-color="#060606"/>
</linearGradient>
<linearGradient id="paint12_linear_1223_3477" x1="105.216" y1="159.937" x2="113.623" y2="165.726" gradientUnits="userSpaceOnUse">
<stop stop-color="#457298"/>
<stop offset="1" stop-color="#283947"/>
</linearGradient>
<linearGradient id="paint13_linear_1223_3477" x1="92.8985" y1="179.57" x2="102.315" y2="179.57" gradientUnits="userSpaceOnUse">
<stop stop-color="white"/>
<stop offset="1" stop-color="#4A4A4A"/>
</linearGradient>
<linearGradient id="paint14_linear_1223_3477" x1="99.0868" y1="193.412" x2="108.452" y2="173.075" gradientUnits="userSpaceOnUse">
<stop stop-color="white"/>
<stop offset="1" stop-color="#142D42"/>
</linearGradient>
<linearGradient id="paint15_linear_1223_3477" x1="34.5888" y1="160.667" x2="38.6403" y2="191.895" gradientUnits="userSpaceOnUse">
<stop stop-color="white"/>
<stop offset="1" stop-color="#164286"/>
</linearGradient>
<linearGradient id="paint16_linear_1223_3477" x1="56.3936" y1="169.183" x2="56.3936" y2="254.377" gradientUnits="userSpaceOnUse">
<stop stop-color="#193D5A"/>
<stop offset="1" stop-color="#060606"/>
</linearGradient>
<linearGradient id="paint17_linear_1223_3477" x1="58.0861" y1="207.927" x2="58.0861" y2="270.269" gradientUnits="userSpaceOnUse">
<stop stop-color="#FFB5B6"/>
<stop offset="1" stop-color="#FF9294"/>
</linearGradient>
<linearGradient id="paint18_linear_1223_3477" x1="132.196" y1="221.013" x2="135.103" y2="232.415" gradientUnits="userSpaceOnUse">
<stop stop-color="#FDFDFD"/>
<stop offset="0.444443" stop-color="#E8E8E8"/>
<stop offset="1" stop-color="#EEEEEE"/>
</linearGradient>
<linearGradient id="paint19_linear_1223_3477" x1="59.6377" y1="219.774" x2="47.0872" y2="223.843" gradientUnits="userSpaceOnUse">
<stop stop-color="#FF8B8C"/>
</linearGradient>
<linearGradient id="paint20_linear_1223_3477" x1="50.1263" y1="154.113" x2="50.1263" y2="145.365" gradientUnits="userSpaceOnUse">
<stop stop-color="#0148B7"/>
<stop offset="1" stop-color="#075CE0"/>
</linearGradient>
</defs>
</svg>
