<svg width="24" height="26" viewBox="0 0 24 26" fill="none" xmlns="http://www.w3.org/2000/svg">
<path d="M2.62375 18.8889H7.51264V25H2.62375V18.8889ZM16.0682 18.8889H20.9571V25H16.0682V18.8889Z" fill="#F7DECE"/>
<path d="M20.9571 20.5511C20.9571 20.5511 19.1237 21.7733 16.0682 21.1622V18.1067H20.9571V20.5511ZM2.62375 20.5511C2.62375 20.5511 4.45708 21.7733 7.51264 21.1622V18.1067H2.62375V20.5511Z" fill="#EEC2AD"/>
<path d="M3.2244 14.1399H8.11328V19.0288H3.2244V14.1399ZM15.4607 14.1179H20.3496V19.0068H15.4607V14.1179Z" fill="#E0AA94"/>
<path d="M1.01836 10.2325C1.01836 10.2325 1.02019 9.48389 1.76819 9.48572C2.51741 9.48817 2.51497 10.2368 2.51497 10.2368L2.50336 13.7103C2.62252 13.6553 2.74719 13.6058 2.87797 13.5631L2.89325 8.742C2.89325 8.742 2.89569 7.99339 3.64308 7.99584C4.39108 7.99767 4.38925 8.74689 4.38925 8.74689L4.37641 13.2813C4.49802 13.2703 4.6233 13.2618 4.74919 13.2557L4.7663 7.99889C4.7663 7.99889 4.76813 7.25028 5.51675 7.25334C6.26536 7.25578 6.2623 8.00439 6.2623 8.00439L6.24519 13.2599C6.37352 13.2673 6.49697 13.2801 6.62041 13.2917L6.63569 8.379C6.63569 8.379 6.63813 7.63039 7.38552 7.63345C8.13352 7.63528 8.13047 8.38328 8.13047 8.38328L8.1158 13.5783L8.11397 13.9945V14.3679C5.86875 14.3624 4.36602 16.2269 4.3593 18.0981C4.3593 18.4721 4.7333 18.4746 4.7333 18.4746C4.73941 16.2269 6.24091 14.7376 8.48675 14.7443L9.58736 12.185C9.58736 12.185 9.82875 11.4767 10.5382 11.7193C11.2459 11.9589 11.0057 12.6684 11.0057 12.6684L10.46 14.5659C10.2437 15.32 10.0414 16.079 9.93508 16.8539C9.63075 19.0441 7.74669 20.7283 5.47458 20.7222C2.99652 20.7118 0.992079 18.6964 1.00002 16.2183C1.00063 16.0876 1.00858 15.9629 1.0208 15.8456L1.00125 15.8431L1.01836 10.2325ZM22.5564 10.2325C22.5564 10.2325 22.5545 9.48389 21.8065 9.48572C21.0573 9.48817 21.0591 10.2368 21.0591 10.2368L21.0707 13.7103C20.9522 13.6553 20.8269 13.6058 20.6967 13.5631L20.6815 8.742C20.6815 8.742 20.679 7.99339 19.9316 7.99584C19.183 7.99767 19.1849 8.74689 19.1849 8.74689L19.1983 13.2813C19.0773 13.2703 18.952 13.2618 18.8255 13.2557L18.809 7.99889C18.809 7.99889 18.8066 7.25028 18.058 7.25334C17.3094 7.25578 17.3124 8.00439 17.3124 8.00439L17.3295 13.2599C17.2012 13.2673 17.0777 13.2801 16.9543 13.2917L16.939 8.379C16.939 8.379 16.936 7.63039 16.1886 7.63345C15.4406 7.63528 15.4436 8.38328 15.4436 8.38328L15.4583 13.5783L15.4601 13.9945V14.3679C17.7054 14.3624 19.2081 16.2269 19.2154 18.0981C19.2154 18.4721 18.8414 18.4746 18.8414 18.4746C18.8347 16.2269 17.3332 14.7376 15.088 14.7443L13.9874 12.185C13.9874 12.185 13.7466 11.4767 13.0365 11.7193C12.3294 11.9589 12.569 12.6684 12.569 12.6684L13.1147 14.5659C13.331 15.32 13.5333 16.079 13.6396 16.8539C13.944 19.0441 15.8274 20.7283 18.1001 20.7222C20.5782 20.7118 22.5832 18.6964 22.5747 16.2183C22.5741 16.0876 22.5661 15.9629 22.5539 15.8456L22.5735 15.8431L22.5564 10.2325Z" fill="#F7DECE"/>
<path d="M15.1766 6.94656C15.0464 6.94656 14.9144 6.905 14.8038 6.81944C14.5362 6.61289 14.4873 6.22911 14.6938 5.96206L16.5143 3.60622C16.719 3.33978 17.104 3.28844 17.3711 3.49622C17.6388 3.70278 17.6877 4.08656 17.4811 4.35361L15.6606 6.70944C15.5408 6.86528 15.3599 6.94656 15.1766 6.94656ZM8.44216 6.94656C8.25943 6.94656 8.07855 6.86467 7.95816 6.70883L6.13766 4.35361C5.93171 4.08656 5.98121 3.70278 6.24827 3.49622C6.51532 3.29028 6.89849 3.33917 7.10566 3.60622L8.92616 5.96206C9.1321 6.22911 9.08321 6.61289 8.81616 6.81944C8.70432 6.90561 8.57293 6.94656 8.44216 6.94656ZM11.7904 6.66667C11.4531 6.66667 11.1793 6.39289 11.1793 6.05556V3.61111C11.1793 3.27378 11.4531 3 11.7904 3C12.1284 3 12.4015 3.27378 12.4015 3.61111V6.05556C12.4015 6.39289 12.1284 6.66667 11.7904 6.66667Z" fill="#5DADEC"/>
</svg>
