<svg width="27" height="27" viewBox="0 0 27 27" fill="none" xmlns="http://www.w3.org/2000/svg">
<g clip-path="url(#clip0_59_42)">
<path d="M19.9167 18.2254C19.7407 18.2658 19.4967 18.4468 19.2343 18.6737C18.8273 19.0323 18.463 19.4366 18.1485 19.8785C18.0422 20.0269 17.9376 20.1768 17.8668 20.2881C17.662 20.6107 16.8706 21.0795 15.9762 20.5371C15.0819 19.9948 11.8238 17.5951 10.676 16.3221C9.40749 15.1732 7.00502 11.9162 6.46265 11.0219C5.92028 10.1275 6.3896 9.33666 6.7117 9.13133C6.82239 9.06049 6.97292 8.95645 7.1218 8.85019C7.56367 8.53537 7.96793 8.17084 8.32663 7.76379C8.55631 7.50146 8.73396 7.2574 8.77436 7.08196C8.84963 6.75764 8.67032 6.23852 7.01 3.27596C5.3591 0.331124 4.85768 0.168968 4.46419 0.0344826C4.2644 -0.0341437 3.2671 -0.164756 1.59683 1.35609C-0.0734471 2.87694 -0.0015005 5.64689 -0.0015005 5.64689C0.123576 7.95915 2.05951 11.1669 4.00927 13.8455C6.56094 17.3517 9.6459 20.4366 13.1521 22.9883C15.8307 24.9381 19.039 26.874 21.3507 26.9991C21.3507 26.9991 24.1179 27.0716 25.6415 25.4013C27.1651 23.731 27.0317 22.7337 26.9631 22.5334C26.8286 22.1421 26.667 21.6407 23.7216 19.9876C20.7596 18.3295 20.2405 18.1485 19.9167 18.2254Z" fill="#107AD1"/>
<path d="M25.8809 16.0154C25.6063 16.0155 25.3428 15.9072 25.1475 15.7142C24.9522 15.5212 24.8408 15.259 24.8376 14.9844C24.8202 13.405 24.4916 11.8446 23.8707 10.3922C23.2498 8.93993 22.3487 7.62422 21.219 6.52034C20.0893 5.41646 18.7532 4.54604 17.2869 3.95885C15.8206 3.37166 14.253 3.07921 12.6736 3.09821C12.397 3.10144 12.1303 2.99463 11.9324 2.80127C11.7345 2.60791 11.6215 2.34384 11.6182 2.06716C11.615 1.79048 11.7218 1.52385 11.9152 1.32592C12.1085 1.12799 12.3726 1.01499 12.6493 1.01176C14.5025 0.989534 16.342 1.33272 18.0625 2.0217C19.783 2.71068 21.3509 3.73195 22.6766 5.02714C24.0023 6.32234 25.0597 7.86607 25.7885 9.57012C26.5173 11.2742 26.9032 13.1051 26.9241 14.9584C26.9257 15.0954 26.9003 15.2314 26.8494 15.3585C26.7984 15.4857 26.7229 15.6016 26.6272 15.6996C26.5314 15.7976 26.4173 15.8758 26.2914 15.9297C26.1654 15.9836 26.03 16.0122 25.893 16.0138L25.8809 16.0154Z" fill="#107AD1"/>
<path d="M20.8577 14.1646C20.5831 14.1645 20.3196 14.0561 20.1243 13.863C19.929 13.6699 19.8177 13.4076 19.8145 13.133C19.7989 11.7882 19.2497 10.5047 18.2878 9.56476C17.3259 8.62486 16.03 8.10554 14.6853 8.12104H14.6731C14.5361 8.1218 14.4003 8.09557 14.2734 8.04385C14.1465 7.99213 14.0311 7.91593 13.9337 7.81959C13.8363 7.72326 13.7588 7.60868 13.7057 7.48241C13.6525 7.35613 13.6248 7.22062 13.624 7.08362C13.6233 6.94662 13.6495 6.81082 13.7012 6.68395C13.7529 6.55709 13.8292 6.44166 13.9255 6.34424C14.0218 6.24683 14.1364 6.16935 14.2627 6.11622C14.389 6.06308 14.5245 6.03534 14.6615 6.03458C16.5598 6.0145 18.3884 6.74868 19.7458 8.07588C21.1032 9.40308 21.8783 11.2148 21.901 13.113C21.9032 13.3891 21.7959 13.6547 21.6027 13.8518C21.4094 14.0489 21.1459 14.1614 20.8699 14.1646H20.8577Z" fill="#107AD1"/>
</g>
<defs>
<clipPath id="clip0_59_42">
<rect width="27" height="27" fill="white"/>
</clipPath>
</defs>
</svg>
