<svg width="24" height="26" viewBox="0 0 24 26" fill="none" xmlns="http://www.w3.org/2000/svg">
<path d="M18.6667 16.2222C17 16.2222 14.9511 20.1633 14.7778 21.7778C14.5439 23.9528 15.8889 24 15.8889 24H22V18.4445C22 18.4445 20.09 16.2222 18.6667 16.2222Z" fill="#50A5E6"/>
<path d="M18.1065 20.2825C19.0036 18.7286 19.3781 17.2652 18.9428 17.0139C18.5076 16.7626 17.4275 17.8186 16.5303 19.3725C15.6331 20.9264 15.2587 22.3898 15.6939 22.6411C16.1292 22.8924 17.2093 21.8364 18.1065 20.2825Z" fill="#1C6399"/>
<path d="M13.1589 4C13.815 4 14.3467 4.53167 14.3467 5.18778C14.3467 5.62611 14.7178 11.2011 14.7178 11.2011L11.9711 14V5.18778C11.9711 4.53167 12.5028 4 13.1589 4Z" fill="#EEC2AD"/>
<path d="M12.4861 6.40166C12.4861 5.79111 12.9594 5.29666 13.5433 5.29666C14.1272 5.29666 14.6005 5.79166 14.6005 6.40166C14.6005 6.40166 14.8977 9.70277 15.2627 11.6072C15.7505 12.6439 16.0233 14.2083 15.9633 15.0783C15.9933 15.2994 19.0883 17.8594 19.0883 17.8594C18.9322 18.8667 17.8333 21.2789 16.4444 22.3922L14.4883 20.7678C12.8855 20.5433 12.0116 18.9172 12.0116 18.3989C12.0116 16.7411 12.4861 6.40166 12.4861 6.40166Z" fill="#F7DECE"/>
<path d="M5.33333 16.2222C7 16.2222 9.04889 20.1633 9.22222 21.7778C9.45611 23.9528 8.11111 24 8.11111 24H2V18.4445C2 18.4445 3.91 16.2222 5.33333 16.2222Z" fill="#50A5E6"/>
<path d="M8.30544 22.6403C8.74068 22.389 8.36623 20.9256 7.46907 19.3717C6.57192 17.8177 5.49179 16.7618 5.05655 17.013C4.6213 17.2643 4.99575 18.7277 5.89291 20.2817C6.79006 21.8356 7.87019 22.8916 8.30544 22.6403Z" fill="#1C6399"/>
<path d="M10.9228 4.00612C10.2195 3.93556 9.6267 4.48612 9.6267 5.17445C9.6267 5.60778 9.52448 10.9072 9.52448 10.9072L11.9417 14L11.9761 5.24167C11.9761 4.62723 11.5345 4.06723 10.9228 4.00612Z" fill="#EEC2AD"/>
<path d="M11.5139 6.40166C11.5139 5.79111 11.0406 5.29666 10.4567 5.29666C9.87282 5.29666 9.39949 5.79166 9.39949 6.40166C9.39949 6.40166 9.10227 9.70277 8.73727 11.6072C8.24949 12.6439 7.97671 14.2083 8.03671 15.0783C8.00671 15.2994 4.91171 17.8594 4.91171 17.8594C5.06782 18.8667 6.16671 21.2789 7.5556 22.3922L9.51171 20.7678C11.1145 20.5433 11.9884 18.9172 11.9884 18.3989C11.9884 16.7411 11.5139 6.40166 11.5139 6.40166Z" fill="#F7DECE"/>
<path d="M12 18.3461C11.77 18.3461 11.5833 18.1594 11.5833 17.9294V5.55111C11.5833 5.32111 11.77 5.13445 12 5.13445C12.23 5.13445 12.4167 5.32111 12.4167 5.55111V17.9294C12.4167 18.1594 12.23 18.3461 12 18.3461Z" fill="#EEC2AD"/>
</svg>
