<svg width="30" height="32" viewBox="0 0 30 32" fill="none" xmlns="http://www.w3.org/2000/svg">
<path d="M10.2354 25.0866V5.76122L27.9333 2.30957V21.6349" stroke="#107AD1" stroke-width="3" stroke-miterlimit="10"/>
<path d="M9.85607 23.3442C8.90788 21.4958 6.48524 21.0824 4.43715 22.4188C2.38906 23.7552 1.50016 26.3415 2.44361 28.1876C3.38705 30.0336 5.81444 30.4638 7.8649 29.1274C9.91536 27.791 10.8043 25.2118 9.85607 23.3442Z" stroke="#107AD1" stroke-width="3" stroke-miterlimit="10"/>
<path d="M27.5514 20.0682C26.6151 18.2126 24.183 17.7991 22.135 19.138C20.0869 20.4768 19.1979 23.0656 20.1413 24.9236C21.0848 26.7816 23.5074 27.1902 25.565 25.8466C27.6226 24.5029 28.5044 21.9286 27.5514 20.0682Z" stroke="#107AD1" stroke-width="3" stroke-miterlimit="10"/>
<path d="M10.2354 10.5932L27.9333 7.1416" stroke="#107AD1" stroke-width="3" stroke-miterlimit="10"/>
</svg>
