<svg width="24" height="26" viewBox="0 0 24 26" fill="none" xmlns="http://www.w3.org/2000/svg">
<path d="M6.66663 5.95868V13.3333C6.66663 16.6473 9.35263 19.3333 12.6666 19.3333C15.9806 19.3333 18.6666 16.6473 18.6666 13.3333V6.16668L6.66663 5.95868Z" fill="#F7DECE"/>
<path d="M10 16.6667H15.3333C15.3333 16.6667 14.6667 18 12.6667 18C10.6667 18 10 16.6667 10 16.6667Z" fill="#C1694F"/>
<path d="M9.99998 12.6667C9.63198 12.6667 9.33331 12.368 9.33331 12V11.3333C9.33331 10.9653 9.63198 10.6667 9.99998 10.6667C10.368 10.6667 10.6666 10.9653 10.6666 11.3333V12C10.6666 12.368 10.368 12.6667 9.99998 12.6667ZM15.3333 12.6667C14.9653 12.6667 14.6666 12.368 14.6666 12V11.3333C14.6666 10.9653 14.9653 10.6667 15.3333 10.6667C15.7013 10.6667 16 10.9653 16 11.3333V12C16 12.368 15.7013 12.6667 15.3333 12.6667Z" fill="#662113"/>
<path d="M13.3333 15H12C11.816 15 11.6666 14.8507 11.6666 14.6667C11.6666 14.4827 11.816 14.3333 12 14.3333H13.3333C13.5173 14.3333 13.6666 14.4827 13.6666 14.6667C13.6666 14.8507 13.5173 15 13.3333 15Z" fill="#C1694F"/>
<path d="M7.89798 11.1433C7.89798 12.1967 7.36464 13.0507 6.70598 13.0507C6.04731 13.0507 5.51398 12.1967 5.51398 11.1433C5.51398 10.09 6.04798 9.23599 6.70598 9.23599C7.36398 9.23599 7.89798 10.09 7.89798 11.1433ZM19.8193 11.1433C19.8193 12.1967 19.286 13.0507 18.6273 13.0507C17.9686 13.0507 17.4353 12.1967 17.4353 11.1433C17.4353 10.09 17.9686 9.23599 18.6273 9.23599C19.286 9.23599 19.8193 10.09 19.8193 11.1433Z" fill="#F7DECE"/>
<path d="M12.6667 2.54866C7.98735 2.54866 5.90735 5.67133 5.90735 8.27399C5.90735 10.876 6.80268 11.598 6.94735 10.876C7.46735 8.27399 9.02735 7.47533 9.02735 7.47533C12.1473 10.078 11.6273 7.99599 11.6273 7.99599C14.7467 11.1187 13.1873 7.99599 13.1873 7.99599C14.2273 9.03733 17.3467 9.03733 17.3467 9.03733C17.3467 9.03733 17.8667 9.83599 18.386 10.8767C18.906 11.918 19.426 10.8767 19.426 8.27466C19.426 5.67133 16.826 2.54866 12.6667 2.54866Z" fill="#292F33"/>
<path d="M8.94733 3.95667C8.55333 3.69733 8.02267 3.80733 7.76333 4.20133L7.33333 4.856V3.33333C7.33333 2.59667 6.736 2 6 2H3.33333C2.59733 2 2 2.59733 2 3.33333V8.66667C2 8.66667 2 9.33333 2.66667 9.33333H6.66667L7.33333 8.66667V7.97133L9.19267 5.14067C9.452 4.746 9.34267 4.216 8.94733 3.95667Z" fill="#F7DECE"/>
<path d="M3.33331 2H3.99998V5.33333H3.33331V2ZM5.33331 2H5.99998V5.33333H5.33331V2Z" fill="#E0AA94"/>
<path d="M18.6667 20H6.66667L7.33333 8.66667H2V20C2 20 2 26 7.33333 26H21.3333V22.6667C21.3333 21.194 20.1393 20 18.6667 20Z" fill="#4289C1"/>
<path d="M17.9999 23.3333H18.6666V26H17.9999V23.3333Z" fill="#2A6797"/>
<path d="M10.6667 18V20.6667C10.6667 21.7713 11.562 22.6667 12.6667 22.6667C13.7714 22.6667 14.6667 21.7713 14.6667 20.6667V18H10.6667Z" fill="#F7DECE"/>
</svg>
