<svg width="226" height="226" viewBox="0 0 226 226" fill="none" xmlns="http://www.w3.org/2000/svg">
<g filter="url(#filter0_d_69_83)">
<rect x="21.5" y="21.5" width="183" height="183" rx="21.5" fill="#F7F7F7" stroke="#E9EBED" stroke-width="3"/>
<path fill-rule="evenodd" clip-rule="evenodd" d="M167.037 64.635C170.914 62.333 172.175 57.3496 169.854 53.5044C167.533 49.6592 162.508 48.4082 158.631 50.7102L119.846 73.7399C112.533 78.0823 112.632 88.6251 120.025 92.8321L158.762 114.875C162.682 117.105 167.682 115.762 169.931 111.875C172.18 107.988 170.825 103.028 166.906 100.798L135.873 83.1393L167.037 64.635ZM70.107 97.2631V69.7221H97.8756V97.2631H70.107ZM54.2393 59.8861C54.2393 56.6267 56.9033 53.9844 60.1897 53.9844H107.793C111.079 53.9844 113.743 56.6267 113.743 59.8861V107.099C113.743 110.359 111.079 113.001 107.793 113.001H60.1897C56.9033 113.001 54.2393 110.359 54.2393 107.099V59.8861Z" fill="#46A3F1"/>
<path fill-rule="evenodd" clip-rule="evenodd" d="M161.978 129.229C166.959 129.229 170.637 133.938 168.718 138.534V138.534C165.728 145.695 161.345 152.201 155.819 157.681C150.294 163.161 143.734 167.508 136.515 170.474C129.295 173.44 121.557 174.966 113.743 174.966C105.929 174.966 98.1914 173.44 90.972 170.474C83.7526 167.508 77.193 163.161 71.6675 157.681C66.142 152.201 61.759 145.695 58.7686 138.534V138.534C56.8491 133.938 60.5276 129.229 65.5085 129.229H67.2716C69.5933 129.229 71.6175 130.746 72.5123 132.888V132.888C74.7551 138.258 78.0423 143.138 82.1864 147.248C86.3305 151.358 91.2503 154.618 96.6648 156.843C102.079 159.067 107.883 160.212 113.743 160.212C119.604 160.212 125.407 159.067 130.822 156.843C136.236 154.618 141.156 151.358 145.3 147.248C149.444 143.138 152.731 138.258 154.974 132.888V132.888C155.869 130.746 157.893 129.229 160.215 129.229H161.978Z" fill="#46A3F1"/>
</g>
<defs>
<filter id="filter0_d_69_83" x="0" y="0" width="226" height="226" filterUnits="userSpaceOnUse" color-interpolation-filters="sRGB">
<feFlood flood-opacity="0" result="BackgroundImageFix"/>
<feColorMatrix in="SourceAlpha" type="matrix" values="0 0 0 0 0 0 0 0 0 0 0 0 0 0 0 0 0 0 127 0" result="hardAlpha"/>
<feOffset/>
<feGaussianBlur stdDeviation="10"/>
<feComposite in2="hardAlpha" operator="out"/>
<feColorMatrix type="matrix" values="0 0 0 0 0.962652 0 0 0 0 0.962652 0 0 0 0 0.962652 0 0 0 1 0"/>
<feBlend mode="normal" in2="BackgroundImageFix" result="effect1_dropShadow_69_83"/>
<feBlend mode="normal" in="SourceGraphic" in2="effect1_dropShadow_69_83" result="shape"/>
</filter>
</defs>
</svg>
