<svg width="206" height="206" viewBox="0 0 206 206" fill="none" xmlns="http://www.w3.org/2000/svg">
<g filter="url(#filter0_d_68_76)">
<rect x="21.5" y="21.5" width="163" height="163" rx="21.5" fill="#F7F7F7" stroke="#E9EBED" stroke-width="3"/>
<path fill-rule="evenodd" clip-rule="evenodd" d="M151.033 60.0095C154.48 57.9632 155.601 53.5335 153.538 50.1156C151.474 46.6976 147.008 45.5856 143.562 47.6319L109.086 68.1027C102.585 71.9626 102.673 81.334 109.245 85.0736L143.678 104.667C147.162 106.65 151.607 105.456 153.606 102C155.605 98.545 154.401 94.1368 150.917 92.1543L123.332 76.4577L151.033 60.0095ZM64.8732 89.0108V64.53H89.5564V89.0108H64.8732ZM50.7686 55.7868C50.7686 52.8896 53.1366 50.5409 56.0578 50.5409H98.3719C101.293 50.5409 103.661 52.8896 103.661 55.7868V97.754C103.661 100.651 101.293 103 98.3719 103H56.0578C53.1366 103 50.7686 100.651 50.7686 97.754V55.7868Z" fill="#46A3F1"/>
<path fill-rule="evenodd" clip-rule="evenodd" d="M146.536 117.426C150.964 117.426 154.233 121.612 152.527 125.698V125.698C149.869 132.062 145.973 137.845 141.062 142.717C136.15 147.588 130.319 151.452 123.902 154.088C117.485 156.725 110.607 158.082 103.661 158.082C96.7149 158.082 89.837 156.725 83.4197 154.088C77.0025 151.452 71.1717 147.588 66.2602 142.717C61.3486 137.845 57.4526 132.062 54.7945 125.698V125.698C53.0882 121.612 56.358 117.426 60.7855 117.426H62.3527C64.4164 117.426 66.2157 118.775 67.0111 120.679V120.679C69.0047 125.452 71.9267 129.79 75.6103 133.443C79.294 137.097 83.6671 139.995 88.48 141.972C93.2929 143.949 98.4514 144.967 103.661 144.967C108.87 144.967 114.029 143.949 118.842 141.972C123.655 139.995 128.028 137.097 131.711 133.443C135.395 129.79 138.317 125.452 140.311 120.679V120.679C141.106 118.775 142.905 117.426 144.969 117.426H146.536Z" fill="#46A3F1"/>
</g>
<defs>
<filter id="filter0_d_68_76" x="0" y="0" width="206" height="206" filterUnits="userSpaceOnUse" color-interpolation-filters="sRGB">
<feFlood flood-opacity="0" result="BackgroundImageFix"/>
<feColorMatrix in="SourceAlpha" type="matrix" values="0 0 0 0 0 0 0 0 0 0 0 0 0 0 0 0 0 0 127 0" result="hardAlpha"/>
<feOffset/>
<feGaussianBlur stdDeviation="10"/>
<feComposite in2="hardAlpha" operator="out"/>
<feColorMatrix type="matrix" values="0 0 0 0 0.962652 0 0 0 0 0.962652 0 0 0 0 0.962652 0 0 0 1 0"/>
<feBlend mode="normal" in2="BackgroundImageFix" result="effect1_dropShadow_68_76"/>
<feBlend mode="normal" in="SourceGraphic" in2="effect1_dropShadow_68_76" result="shape"/>
</filter>
</defs>
</svg>
