<svg width="302" height="46" viewBox="0 0 302 46" fill="none" xmlns="http://www.w3.org/2000/svg">
<path d="M96.561 24.1241C96.561 23.826 96.4432 23.5401 96.2334 23.3293C96.0236 23.1184 95.7391 23 95.4425 23H79.5231C79.2265 23 78.942 23.1184 78.7322 23.3293C78.5224 23.5401 78.4046 23.826 78.4046 24.1241V31.1241C78.4046 31.2715 78.4336 31.4174 78.4899 31.5534C78.5461 31.6895 78.6286 31.813 78.7326 31.9169C78.8365 32.0208 78.9599 32.103 79.0955 32.1588C79.2312 32.2147 79.3765 32.243 79.5231 32.2422H84.4568V43.4714C84.4568 43.7679 84.574 44.0523 84.7827 44.262C84.9913 44.4717 85.2743 44.5894 85.5693 44.5894H95.4667C95.6133 44.5902 95.7586 44.5619 95.8943 44.5061C96.0299 44.4503 96.1533 44.368 96.2572 44.2641C96.3612 44.1602 96.4437 44.0367 96.4999 43.9007C96.5562 43.7646 96.5852 43.6187 96.5852 43.4714L96.561 24.1241Z" fill="#212427"/>
<path d="M96.5205 18.7042C96.5221 18.2055 96.7225 17.7277 97.078 17.375C97.4334 17.0224 97.915 16.8236 98.4177 16.8219H99.425C99.7272 16.8203 100.016 16.7001 100.229 16.4876C100.443 16.275 100.562 15.9875 100.562 15.6877V6.24589C100.56 5.94719 100.44 5.66118 100.227 5.44997C100.014 5.23876 99.7261 5.11938 99.425 5.11777H98.4177C97.914 5.11615 97.4314 4.91648 97.0758 4.56252C96.7202 4.20856 96.5205 3.72917 96.5205 3.22941V2.66535C96.5205 2.48324 96.4476 2.30858 96.3178 2.1798C96.188 2.05102 96.0119 1.97868 95.8284 1.97868H84.0867C83.7857 1.98029 83.4974 2.09966 83.2845 2.31087C83.0716 2.52209 82.9513 2.80809 82.9496 3.10679V19.5932C82.9496 19.8929 83.0692 20.1805 83.2823 20.393C83.4954 20.6056 83.7846 20.7258 84.0867 20.7274H95.3587C95.6619 20.7274 95.9527 20.6079 96.1671 20.3952C96.3815 20.1825 96.502 19.894 96.502 19.5932L96.5205 18.7042Z" fill="#212427"/>
<path d="M80.6771 3.31152C80.6771 2.95802 80.5379 2.61901 80.29 2.36906C80.0421 2.1191 79.7059 1.97868 79.3553 1.97868H55.8643C55.5137 1.97868 55.1775 2.1191 54.9297 2.36906C54.6818 2.61901 54.5425 2.95802 54.5425 3.31152V16.8941C54.5441 18.0599 55.0037 19.1775 55.8206 20.0024C56.6375 20.8273 57.7453 21.2923 58.9014 21.2956H79.3553C79.7065 21.2939 80.0426 21.1521 80.2904 20.9012C80.5381 20.6502 80.6771 20.3106 80.6771 19.9565V3.31152ZM73.2259 13.0258H73.0353C69.351 13.0566 65.6882 12.4571 62.2028 11.2528L62.006 11.1908L62.8483 9.2938L63.0143 9.34959C66.2311 10.4724 69.6069 11.0627 73.0107 11.0978H73.2013L73.2259 13.0258Z" fill="#212427"/>
<path d="M66.1446 45.7258C71.7315 45.7258 77.4774 45.2682 81.3117 42.9125C81.5628 42.8334 81.7817 42.6777 81.9368 42.468C82.092 42.2583 82.1752 42.0054 82.1745 41.746V35.8096C82.177 35.6148 82.1321 35.4223 82.0436 35.248C81.955 35.0738 81.8254 34.9229 81.6655 34.808C81.5135 34.697 81.3377 34.6217 81.1516 34.5878C80.9654 34.554 80.7739 34.5624 80.5916 34.6125C77.4774 36.0499 73.9657 37.3668 68.547 37.0349V37.0349C68.3893 37.0349 68.2614 36.907 68.2614 36.7493V35.5493C68.2614 35.3916 68.3893 35.2637 68.547 35.2637V35.2637C71.837 35.2637 74.0532 34.94 76.1203 34.1461V24.2215C76.1203 23.8975 75.9895 23.5868 75.7567 23.3578C75.5239 23.1287 75.2081 23 74.8788 23H55.8089C55.4796 23 55.1638 23.1287 54.931 23.3578C54.6981 23.5868 54.5673 23.8975 54.5673 24.2215V28.8204C54.5672 28.983 54.6001 29.1441 54.664 29.294C54.728 29.444 54.8217 29.5799 54.9398 29.6937C55.0585 29.8081 55.1994 29.8978 55.354 29.9576C55.5086 30.0174 55.6738 30.046 55.8399 30.0419C58.6353 29.9902 61.4208 29.698 64.1644 29.1685L64.5058 29.1074V30.8908L64.2761 30.9336C61.4769 31.4708 58.6355 31.7671 55.784 31.8191C55.4548 31.8191 55.139 31.9478 54.9061 32.1769C54.6733 32.406 54.5425 32.7167 54.5425 33.0406V35.6057C54.5673 41.9391 58.8941 45.7258 66.1446 45.7258Z" fill="#212427"/>
<path d="M146.73 23H104.391C103.845 23 103.403 23.4386 103.403 23.9796V30.5426C103.403 31.0836 103.845 31.5222 104.391 31.5222H146.73C147.276 31.5222 147.718 31.0836 147.718 30.5426V23.9796C147.718 23.4386 147.276 23 146.73 23Z" fill="#212427"/>
<path d="M125.56 0.842392C109.855 0.842392 102.835 3.99863 102.835 11.0721C102.835 18.1456 109.837 21.2956 125.56 21.2956C141.284 21.2956 148.286 18.1393 148.286 11.0721C148.286 4.00487 141.266 0.842392 125.56 0.842392ZM132.255 12.9808H132.065C127.704 13.0151 123.36 12.4143 119.167 11.1969L118.976 11.1407L119.689 9.16962L119.854 9.21952C123.832 10.3528 127.94 10.9464 132.071 10.9848H132.261L132.255 12.9808Z" fill="#212427"/>
<path d="M194.706 45.1269H203.726C204.018 45.127 204.299 45.0124 204.508 44.8074C204.718 44.6025 204.839 44.3233 204.847 44.0295V3.67492C204.847 3.37573 204.729 3.08878 204.519 2.87722C204.309 2.66566 204.023 2.54681 203.726 2.54681H194.706C194.409 2.54681 194.123 2.66566 193.913 2.87722C193.703 3.08878 193.585 3.37573 193.585 3.67492V18.1687H191.256V3.67492C191.256 3.37573 191.138 3.08878 190.928 2.87722C190.718 2.66566 190.432 2.54681 190.135 2.54681H181.115C180.818 2.54681 180.532 2.66566 180.322 2.87722C180.112 3.08878 179.994 3.37573 179.994 3.67492V29.6154C179.994 30.0436 179.849 30.4593 179.584 30.7937C179.318 31.1281 178.946 31.3612 178.531 31.4547C177.491 31.6758 176.431 31.7888 175.368 31.7919C172.93 31.7919 172.576 30.394 172.576 29.5663V3.67492C172.576 3.37573 172.458 3.08878 172.248 2.87722C172.038 2.66566 171.752 2.54681 171.455 2.54681H162.228C161.93 2.5468 161.644 2.66546 161.433 2.87685C161.221 3.08824 161.102 3.37516 161.1 3.67492V37.4325C161.1 42.9504 163.703 45.0779 170.382 45.0779C173.503 45.0796 176.592 44.4542 179.469 43.2386L179.994 43.0117V44.0295C179.994 44.3287 180.112 44.6156 180.322 44.8272C180.532 45.0387 180.818 45.1576 181.115 45.1576H190.135C190.432 45.1576 190.718 45.0387 190.928 44.8272C191.138 44.6156 191.256 44.3287 191.256 44.0295V29.1372H193.585V44.0295C193.592 44.3233 193.714 44.6025 193.924 44.8074C194.133 45.0124 194.414 45.127 194.706 45.1269Z" fill="#212427"/>
<path d="M235.706 27.1795C235.825 27.0638 235.92 26.9251 235.985 26.7718C236.05 26.6185 236.083 26.4537 236.083 26.2872V19.7127C236.076 19.4215 235.971 19.1411 235.787 18.9164C235.602 18.6917 235.347 18.5357 235.063 18.4734C232.784 17.9839 231.511 16.1621 231.461 13.3241C231.461 13.2621 231.461 12.7478 231.461 12.7478H234.86C235.187 12.7478 235.502 12.6172 235.733 12.3848C235.965 12.1524 236.095 11.8372 236.095 11.5085V5.08893C236.095 4.76025 235.965 4.44503 235.733 4.21262C235.502 3.9802 235.187 3.84963 234.86 3.84963H234.242C234.005 3.84963 233.77 3.80283 233.551 3.7119C233.332 3.62097 233.134 3.48769 232.966 3.31968C232.799 3.15166 232.666 2.9522 232.575 2.73267C232.484 2.51315 232.438 2.27786 232.438 2.04025V1.51355C232.438 1.18486 232.307 0.869644 232.076 0.63723C231.844 0.404815 231.53 0.274246 231.202 0.274246H214.749C214.421 0.274246 214.107 0.404815 213.875 0.63723C213.644 0.869644 213.513 1.18486 213.513 1.51355V2.38726C213.513 3.97356 215.256 5.89448 218.172 6.37781L218.604 6.44597L217.585 8.01988H217.418C215.379 7.92074 213.019 6.08037 212.136 4.40732C212.052 4.24321 211.924 4.1055 211.767 4.00931C211.61 3.91311 211.43 3.86215 211.246 3.86203H210.628C210.3 3.86203 209.986 3.99259 209.754 4.22501C209.523 4.45742 209.392 4.77264 209.392 5.10133V11.5457C209.392 11.8744 209.523 12.1896 209.754 12.422C209.986 12.6544 210.3 12.785 210.628 12.785H214.496V13.1754C214.551 14.4175 214.162 15.6386 213.398 16.6182C212.635 17.5977 211.547 18.2711 210.332 18.5168C210.065 18.5829 209.827 18.7365 209.657 18.9531C209.487 19.1697 209.394 19.437 209.392 19.7127V26.2996C209.392 26.4671 209.426 26.633 209.492 26.7871C209.557 26.9412 209.653 27.0804 209.774 27.1962C209.895 27.3121 210.037 27.4022 210.194 27.461C210.35 27.5199 210.517 27.5464 210.684 27.5389C213.655 27.4724 216.605 27.0141 219.457 26.1757C219.677 26.1038 219.874 25.9772 220.032 25.8077C220.19 25.6383 220.302 25.4315 220.358 25.2068C220.414 24.9821 220.412 24.7467 220.353 24.5228C220.294 24.2988 220.179 24.0936 220.019 23.9263C219.714 23.6056 219.437 23.2594 219.191 22.8915L219.049 22.6808L220.563 21.3796L220.748 21.5778C225.462 26.566 230.51 27.3902 234.835 27.5451C234.997 27.5468 235.158 27.5153 235.308 27.4525C235.458 27.3896 235.593 27.2967 235.706 27.1795V27.1795Z" fill="#212427"/>
<path d="M252.535 2.54696H238.954C238.648 2.54696 238.354 2.66623 238.138 2.87854C237.921 3.09085 237.8 3.3788 237.8 3.67904V31.5198C237.798 31.671 237.828 31.8209 237.888 31.9605C237.947 32.1001 238.034 32.2264 238.145 32.3319C238.249 32.4387 238.375 32.5229 238.514 32.579C238.653 32.6352 238.803 32.6621 238.954 32.658C243.377 32.5324 247.772 31.9132 252.052 30.8122C252.531 30.6738 252.952 30.3866 253.25 29.9939C253.549 29.6012 253.709 29.1241 253.708 28.6342V3.67904C253.708 3.52881 253.677 3.38008 253.618 3.24151C253.559 3.10294 253.472 2.97731 253.363 2.87194C253.254 2.76657 253.125 2.68357 252.983 2.62778C252.84 2.57198 252.688 2.54451 252.535 2.54696V2.54696Z" fill="#212427"/>
<path d="M273.538 45.1575H286.702C286.997 45.1609 287.281 45.0476 287.493 44.8421C287.705 44.6366 287.828 44.3555 287.836 44.0593V33.8376C287.836 33.3381 288.033 32.859 288.384 32.5057C288.735 32.1525 289.211 31.954 289.707 31.954H300.879C301.175 31.9524 301.46 31.833 301.67 31.6216C301.88 31.4102 301.998 31.124 302 30.8251V3.67573C301.998 3.37682 301.88 3.09061 301.67 2.87924C301.46 2.66788 301.175 2.54842 300.879 2.54681H259.38C259.082 2.5468 258.796 2.66555 258.585 2.87709C258.374 3.08863 258.254 3.37576 258.253 3.67573V12.9157C258.253 13.0645 258.282 13.2118 258.339 13.3492C258.396 13.4865 258.479 13.6113 258.583 13.7162C258.688 13.8211 258.813 13.9041 258.949 13.9605C259.086 14.0168 259.233 14.0455 259.38 14.0446H287.336C287.834 14.0446 288.312 14.2437 288.664 14.5981C289.016 14.9525 289.213 15.4332 289.213 15.9344V18.5665C289.213 19.0677 289.016 19.5483 288.664 19.9027C288.312 20.2571 287.834 20.4562 287.336 20.4562H259.38C259.233 20.4554 259.086 20.484 258.949 20.5404C258.813 20.5967 258.688 20.6798 258.583 20.7847C258.479 20.8896 258.396 21.0143 258.339 21.1517C258.282 21.289 258.253 21.4363 258.253 21.5851V30.8251C258.254 31.1251 258.374 31.4122 258.585 31.6237C258.796 31.8353 259.082 31.954 259.38 31.954H270.546C271.042 31.954 271.519 32.1523 271.871 32.5053C272.223 32.8584 272.421 33.3375 272.423 33.8376V44.0593C272.431 44.3523 272.551 44.6307 272.76 44.8357C272.968 45.0406 273.247 45.156 273.538 45.1575V45.1575Z" fill="#212427"/>
<path d="M125.119 45.7258C133.932 45.7258 139.951 45.153 145.872 43.7621C146.368 43.6433 146.811 43.3575 147.128 42.951C147.446 42.5445 147.619 42.0409 147.621 41.5216L147.745 39.1426C147.817 38.5734 148.029 38.032 148.363 37.5692C148.698 37.0629 148.955 36.5067 149.123 35.9203C149.228 35.6056 149.314 35.2909 149.389 35.0643C149.428 34.9552 149.433 34.8366 149.404 34.7242C149.376 34.6118 149.314 34.5109 149.228 34.435C149.153 34.3638 149.06 34.316 148.959 34.297C148.858 34.2781 148.754 34.2888 148.659 34.328C148.486 34.3972 145.835 35.058 144.896 35.2594L144.698 35.2972C138.796 36.5559 132.955 37.0091 125.119 36.9147C121.732 36.8769 119.612 36.2853 118.648 35.1147C118.363 34.7677 118.171 34.3514 118.092 33.9063C118.066 33.7204 117.975 33.5501 117.837 33.4256C117.699 33.3012 117.522 33.2306 117.338 33.2266H104.168C103.982 33.2261 103.803 33.2971 103.667 33.4256C103.53 33.554 103.446 33.7302 103.432 33.9189C103.247 37.0342 103.933 39.3944 105.534 41.1188C108.445 44.3223 114.489 45.7258 125.119 45.7258Z" fill="#212427"/>
<path d="M254.662 32.2092C253.956 32.5143 253.313 32.7706 252.75 32.9781C246.564 34.9064 238.911 35.3942 234.377 35.2477C229.428 35.0525 224.863 32.9476 224.047 30.2626C223.949 29.967 223.758 29.7097 223.503 29.5277C223.247 29.3457 222.939 29.2483 222.624 29.2496H210.586C210.299 29.2589 210.026 29.3714 209.817 29.5658C209.608 29.7603 209.479 30.0233 209.454 30.3053C209.126 34.4121 210.116 37.7196 212.386 40.1483C215.85 43.8462 222.531 45.7257 232.243 45.7257C240.594 45.7257 247.139 45.0728 252.849 43.6632C253.094 43.6027 253.31 43.4626 253.464 43.2654C253.618 43.0683 253.7 42.8257 253.697 42.577V37.268C253.712 36.5671 253.941 35.8869 254.352 35.3153C254.685 34.8282 254.943 34.2957 255.119 33.7348C255.224 33.4296 255.311 33.155 255.385 32.9049C255.42 32.797 255.421 32.6816 255.389 32.573C255.357 32.4644 255.293 32.3676 255.206 32.2946C255.134 32.228 255.044 32.1842 254.947 32.169C254.85 32.1537 254.75 32.1677 254.662 32.2092Z" fill="#212427"/>
<path fill-rule="evenodd" clip-rule="evenodd" d="M42.3725 6.62089C43.857 5.78597 44.3399 3.97858 43.4512 2.58397C42.5625 1.18936 40.6387 0.735644 39.1542 1.57057L24.3039 9.9231C21.5037 11.498 21.5415 15.3218 24.3723 16.8476L39.2044 24.8423C40.7051 25.6512 42.6196 25.164 43.4806 23.7541C44.3416 22.3442 43.823 20.5456 42.3223 19.7367L30.4403 13.3321L42.3725 6.62089ZM5.92692 11.4656C5.92692 9.80876 7.27007 8.46561 8.92692 8.46561H13.299C14.9559 8.46561 16.299 9.80876 16.299 11.4656V15.4547C16.299 17.1116 14.9559 18.4547 13.299 18.4547H8.92692C7.27007 18.4547 5.92692 17.1116 5.92692 15.4547V11.4656ZM0 4.89807C0 3.71589 0.99509 2.75755 2.22259 2.75755H20.0034C21.2309 2.75755 22.226 3.71589 22.226 4.89807V22.0223C22.226 23.2044 21.2309 24.1628 20.0034 24.1628H2.2226C0.99509 24.1628 0 23.2044 0 22.0223V4.89807Z" fill="#46A3F1"/>
<path fill-rule="evenodd" clip-rule="evenodd" d="M40.2462 28.888C42.1096 28.888 43.4926 30.5196 42.7834 32.1323C42.777 32.1469 42.7706 32.1615 42.7641 32.1761C41.6444 34.706 40.0032 37.0048 37.9342 38.9412C35.8653 40.8775 33.409 42.4135 30.7058 43.4614C28.0026 44.5094 25.1053 45.0487 22.1793 45.0487C19.2534 45.0487 16.3561 44.5094 13.6528 43.4614C10.9496 42.4135 8.49337 40.8775 6.42441 38.9412C4.35544 37.0048 2.71425 34.706 1.59453 32.1761C1.58808 32.1615 1.58164 32.1469 1.57523 32.1323C0.86605 30.5196 2.24902 28.888 4.1124 28.888H4.76776C5.64301 28.888 6.40578 29.4243 6.74073 30.1811V30.1811C7.58052 32.0786 8.81141 33.8026 10.3631 35.2549C11.9149 36.7072 13.757 37.8591 15.7844 38.6451C17.8119 39.4311 19.9848 39.8356 22.1793 39.8356C24.3738 39.8356 26.5468 39.4311 28.5742 38.6451C30.6016 37.8591 32.4438 36.7072 33.9955 35.2549C35.5472 33.8026 36.7781 32.0786 37.6179 30.1811V30.1811C37.9529 29.4243 38.7156 28.888 39.5909 28.888H40.2462Z" fill="#46A3F1"/>
</svg>
