<svg width="32" height="32" viewBox="0 0 32 32" fill="none" xmlns="http://www.w3.org/2000/svg">
<path d="M23.1505 16.611C23.1144 13.2995 25.8599 11.686 25.9923 11.6137C24.439 9.3499 22.0306 9.03681 21.1877 9.01273C19.1647 8.79598 17.202 10.2169 16.1784 10.2169C15.1308 10.2169 13.5413 9.02477 11.8314 9.0609C9.61574 9.10906 7.56866 10.3734 6.43675 12.3603C4.11272 16.3942 5.84671 22.3187 8.07441 25.582C9.19428 27.1835 10.4948 28.9657 12.2047 28.8934C13.8785 28.8212 14.5046 27.8338 16.5156 27.8338C18.5145 27.8338 19.0925 28.8934 20.8385 28.8573C22.6327 28.8332 23.7646 27.2558 24.8363 25.6422C26.1248 23.8119 26.6426 22.0056 26.6667 21.9213C26.6185 21.8973 23.1866 20.5847 23.1505 16.611Z" fill="#010B13"/>
<path d="M19.8631 6.86927C20.7663 5.7494 21.3804 4.22012 21.1998 2.66675C19.8993 2.72696 18.2736 3.56987 17.3344 4.66566C16.5035 5.62898 15.769 7.21848 15.9616 8.71164C17.4187 8.82001 18.9239 7.9771 19.8631 6.86927Z" fill="#010B13"/>
</svg>
