<svg width="32" height="32" viewBox="0 0 32 32" fill="none" xmlns="http://www.w3.org/2000/svg">
<path d="M28.8036 9.45341C28.6604 8.91446 28.3781 8.42258 27.9851 8.027C27.592 7.63141 27.102 7.346 26.5639 7.19932C24.5833 6.66675 16.6667 6.66675 16.6667 6.66675C16.6667 6.66675 8.75 6.66675 6.76939 7.19932C6.23137 7.346 5.74131 7.63141 5.34825 8.027C4.95519 8.42258 4.67292 8.91446 4.5297 9.45341C4 11.4427 4 15.591 4 15.591C4 15.591 4 19.7393 4.5297 21.7286C4.67292 22.2675 4.95519 22.7594 5.34825 23.155C5.74131 23.5506 6.23137 23.836 6.76939 23.9827C8.75 24.5152 16.6667 24.5152 16.6667 24.5152C16.6667 24.5152 24.5833 24.5152 26.5639 23.9827C27.102 23.836 27.592 23.5506 27.9851 23.155C28.3781 22.7594 28.6604 22.2675 28.8036 21.7286C29.3333 19.7393 29.3333 15.591 29.3333 15.591C29.3333 15.591 29.3333 11.4427 28.8036 9.45341Z" fill="#FF0302"/>
<path d="M14.0758 19.358V11.8242L20.697 15.5911L14.0758 19.358Z" fill="white"/>
</svg>
