<svg width="32" height="32" viewBox="0 0 32 32" fill="none" xmlns="http://www.w3.org/2000/svg">
<path d="M28 23.2007C28 25.8503 25.8521 28 23.1989 28H8.79928C6.14966 28 4 25.8503 4 23.2007V8.80108C4 6.14966 6.14966 4 8.79928 4H23.1989C25.8521 4 28 6.14966 28 8.80108V23.2007Z" fill="#3BAC37"/>
<path d="M26.2764 16.8204C26.2764 18.6199 24.8234 20.0783 23.0311 20.0783H8.97083C7.17855 20.0783 5.72559 18.6199 5.72559 16.8204V9.09357C5.72559 7.29407 7.17855 5.83569 8.97083 5.83569H23.0311C24.8234 5.83569 26.2764 7.29407 26.2764 9.09357V16.8204Z" fill="white"/>
<path d="M18.5296 19.5205L16.4414 19.3906V19.3364L16.0028 19.3635L15.5606 19.3364V19.3924L13.4723 19.5223L15.4667 22.7694C15.4667 22.7694 15.4848 22.8019 15.5208 22.8452C15.6183 23.0112 15.7952 23.1231 16.001 23.1231C16.2067 23.1231 16.3818 23.0112 16.4793 22.8488C16.5208 22.8001 16.5352 22.7694 16.5352 22.7694L18.5296 19.5223V19.5205Z" fill="white"/>
<path d="M10.2885 11.4974C10.2885 11.4974 9.72717 11.4974 9.21819 11.992V9.99756H7.96016V15.239H9.23082V14.8275C9.23082 14.8275 9.53044 15.369 10.2867 15.369C10.2867 15.369 12.0591 15.304 12.0591 13.4125C12.0591 13.4125 11.9942 11.4956 10.2867 11.4956L10.2885 11.4974ZM10.0105 14.2644C9.56473 14.2644 9.20194 13.9016 9.20194 13.4558C9.20194 13.01 9.56473 12.6472 10.0105 12.6472C10.4564 12.6472 10.8191 13.01 10.8191 13.4558C10.8191 13.9016 10.4564 14.2644 10.0105 14.2644Z" fill="#E9722D"/>
<path d="M12.4669 9.88037V11.0933C12.4669 11.0933 13.0409 11.068 13.0409 12.1365V15.2392H14.2538V11.8495C14.2538 11.8495 14.3061 9.88037 12.4669 9.88037Z" fill="#E9722D"/>
<path d="M17.2194 11.5139C17.2194 11.5139 15.1402 11.5139 15.1402 13.456C15.1402 13.456 15.0734 15.371 17.2194 15.371C17.2194 15.371 19.3456 15.3674 19.3456 13.456C19.3456 13.456 19.4142 11.5139 17.2194 11.5139ZM17.2194 14.2646C16.7736 14.2646 16.4108 13.9018 16.4108 13.456C16.4108 13.0102 16.7736 12.6474 17.2194 12.6474C17.6653 12.6474 18.028 13.0102 18.028 13.456C18.028 13.9018 17.6653 14.2646 17.2194 14.2646Z" fill="#E9722D"/>
<path d="M22.8165 11.6401V11.9921C22.8165 11.9921 22.4555 11.5138 21.7606 11.5138C21.7606 11.5138 19.981 11.438 19.981 13.4415C19.981 13.4415 19.9611 15.3077 21.7119 15.3077C21.7119 15.3077 22.4266 15.3366 22.8165 14.8276V15.1218C22.8165 15.1218 22.9049 16.0405 22.0151 16.0405H21.7119V17.156H22.201C22.201 17.156 24.0402 17.1758 24.0402 15.1904V11.6401H22.8183H22.8165ZM22.0638 14.2627C21.618 14.2627 21.2552 13.8999 21.2552 13.4541C21.2552 13.0083 21.6162 12.6455 22.0638 12.6455C22.5115 12.6455 22.8724 13.0083 22.8724 13.4541C22.8724 13.8999 22.5097 14.2627 22.0638 14.2627Z" fill="#E9722D"/>
</svg>
