<svg width="32" height="32" viewBox="0 0 32 32" fill="none" xmlns="http://www.w3.org/2000/svg">
<path d="M16.0322 9.87483C15.8207 9.87483 15.6116 9.88562 15.4056 9.90672C15.1995 9.92783 14.9963 9.9591 14.7966 10.0002C14.5969 10.0412 14.4007 10.092 14.2084 10.1521L13.6441 10.3593L13.1069 10.6187L12.5999 10.9272L12.1262 11.2815L11.6891 11.6786L11.2916 12.1153L10.9369 12.5885L10.628 13.095L10.3684 13.6316C10.2904 13.8152 10.221 14.0034 10.1609 14.1955C10.1009 14.3876 10.05 14.5837 10.0089 14.7832C9.96775 14.9827 9.93648 15.1856 9.9153 15.3915C9.89411 15.5974 9.88348 15.8063 9.88348 16.0175C9.88348 16.2287 9.89427 16.4376 9.9153 16.6435C9.93621 16.8478 9.96744 17.0508 10.0089 17.2519C10.05 17.4522 10.1009 17.6476 10.1609 17.8397C10.221 18.0318 10.2903 18.2199 10.3684 18.4035L10.628 18.9401L10.9369 19.4466L11.2916 19.9198L11.6891 20.3566L12.1262 20.7536L12.5999 21.108L13.1069 21.4165L13.6441 21.6759L14.2084 21.8831L14.7966 22.035C14.9979 22.0764 15.2011 22.1076 15.4056 22.1285C15.6138 22.1497 15.8229 22.1603 16.0322 22.1603C16.2436 22.1603 16.4527 22.1495 16.6587 22.1285C16.8632 22.1076 17.0664 22.0764 17.2677 22.035L17.8559 21.8831L18.4202 21.6759L18.9574 21.4165L19.4645 21.108L19.9382 20.7536L20.3754 20.3566L20.7728 19.9198L21.1276 19.4466L21.4364 18.9401L21.696 18.4035L21.9035 17.8397C21.9636 17.6476 22.0144 17.4514 22.0556 17.2519L22.1491 16.6434C22.1703 16.4376 22.181 16.2287 22.181 16.0174C22.181 15.8062 22.1703 15.5973 22.1491 15.3915C22.1282 15.1872 22.097 14.9842 22.0556 14.7831C22.0144 14.5828 21.9636 14.3876 21.9035 14.1954L21.696 13.6316L21.4364 13.0949L21.1276 12.5884L20.7728 12.1152L20.3754 11.6785L19.9382 11.2814L19.4645 10.9271L18.9574 10.6186L18.4202 10.3592L17.8559 10.152L17.2677 10.0001L16.6587 9.90664C16.4505 9.88538 16.2414 9.87474 16.0322 9.87476V9.87483ZM16.0322 11.9951C16.172 11.9951 16.3099 12.002 16.4458 12.0157L16.8464 12.0763L17.2333 12.1749L17.6038 12.3095L17.956 12.4782L18.2872 12.6788L18.5969 12.9097L18.8823 13.1686L19.1415 13.4538L19.3726 13.7631L19.5735 14.0948L19.7422 14.4468C19.7928 14.5673 19.8378 14.6907 19.877 14.817C19.9161 14.9432 19.949 15.0723 19.9755 15.2037C20.0021 15.3351 20.0218 15.4688 20.0362 15.6046L20.0568 16.0179C20.0568 16.1576 20.0499 16.2954 20.0362 16.4313C20.0225 16.5672 20.0023 16.7009 19.9755 16.8322C19.9488 16.9636 19.9159 17.0926 19.877 17.2189L19.7422 17.5891L19.5735 17.9411L19.3726 18.2727L19.1415 18.5821L18.8823 18.8673L18.5969 19.1262L18.2872 19.3571L17.956 19.5577L17.6038 19.7264L17.2333 19.861L16.8464 19.9596L16.4458 20.0201C16.3083 20.0339 16.1703 20.0408 16.0321 20.0408C15.8939 20.0408 15.7558 20.0339 15.6183 20.0201L15.2178 19.9596C15.0863 19.9329 14.9572 19.9 14.8308 19.861L14.4603 19.7264L14.1081 19.5577L13.7769 19.3571L13.4672 19.1262L13.1817 18.8673L12.9226 18.5821L12.6915 18.2727L12.4906 17.9411L12.3219 17.5891L12.1871 17.2189L12.0885 16.8322L12.0279 16.4313C12.0141 16.2939 12.0072 16.156 12.0073 16.0179C12.0072 15.8799 12.0141 15.7419 12.0279 15.6046C12.0415 15.4688 12.0618 15.335 12.0885 15.2037C12.115 15.0732 12.1479 14.9442 12.1872 14.8171L12.322 14.4469L12.4907 14.0949L12.6916 13.7632L12.9226 13.4539L13.1818 13.1687L13.4673 12.9097L13.7769 12.6789L14.1081 12.4782L14.4604 12.3096C14.5816 12.2586 14.7053 12.2137 14.831 12.175L15.2179 12.0764C15.3494 12.0497 15.4833 12.0294 15.6185 12.0158C15.756 12.002 15.8941 11.9951 16.0323 11.9951L16.0322 11.9951Z" fill="url(#paint0_radial_1218_3304)"/>
<path d="M22.4304 8.1272C22.3815 8.12721 22.3327 8.12967 22.2842 8.13459C22.2356 8.1395 22.1873 8.14685 22.1394 8.15662C22.0916 8.16638 22.0443 8.17854 21.9976 8.19305C21.951 8.20758 21.9051 8.22444 21.8601 8.24358C21.8152 8.26275 21.7712 8.28416 21.7283 8.30775C21.6855 8.33129 21.6439 8.35697 21.6036 8.3847C21.5633 8.41245 21.5244 8.44222 21.487 8.47389C21.4497 8.50553 21.414 8.53903 21.38 8.57426C21.3459 8.60951 21.3137 8.64645 21.2834 8.68494C21.253 8.72344 21.2246 8.76344 21.1982 8.8048C21.1719 8.84612 21.1476 8.88874 21.1255 8.93251C21.1033 8.9763 21.0833 9.02119 21.0656 9.067C21.0479 9.11279 21.0325 9.15945 21.0195 9.2068C21.0064 9.25414 20.9957 9.30211 20.9874 9.35053C20.9791 9.39894 20.9732 9.44773 20.9698 9.49673C20.9673 9.53143 20.9661 9.56622 20.9661 9.60102C20.9661 9.65018 20.9685 9.6993 20.9734 9.74822C20.9783 9.79711 20.9856 9.84572 20.9953 9.89387C21.005 9.94203 21.0171 9.98966 21.0315 10.0366C21.0459 10.0836 21.0627 10.1298 21.0817 10.175C21.1007 10.2203 21.122 10.2646 21.1454 10.3077C21.1688 10.3509 21.1943 10.3928 21.2219 10.4334C21.2495 10.4739 21.279 10.513 21.3105 10.5506C21.3419 10.5882 21.3752 10.6242 21.4102 10.6584C21.4453 10.6927 21.482 10.7251 21.5202 10.7556C21.5585 10.7862 21.5982 10.8148 21.6393 10.8414C21.6804 10.8679 21.7228 10.8924 21.7663 10.9147C21.8098 10.937 21.8544 10.9571 21.8999 10.9749C21.9454 10.9927 21.9917 11.0082 22.0388 11.0214C22.0858 11.0345 22.1335 11.0453 22.1816 11.0536C22.2297 11.0619 22.2781 11.0679 22.3268 11.0714C22.3613 11.0738 22.3959 11.0751 22.4304 11.0751C22.4793 11.0751 22.5281 11.0726 22.5766 11.0678C22.6252 11.0628 22.6735 11.0555 22.7214 11.0457C22.7692 11.036 22.8165 11.0238 22.8632 11.0093C22.9098 10.9948 22.9557 10.9779 23.0007 10.9588C23.0456 10.9396 23.0896 10.9182 23.1325 10.8947C23.1753 10.8711 23.2169 10.8454 23.2572 10.8176C23.2975 10.7899 23.3364 10.7602 23.3738 10.7285C23.4111 10.6969 23.4468 10.6633 23.4808 10.6281C23.5149 10.5928 23.5471 10.5559 23.5774 10.5174C23.6078 10.4789 23.6362 10.4389 23.6625 10.3975C23.6889 10.3562 23.7132 10.3136 23.7353 10.2698C23.7575 10.226 23.7775 10.1811 23.7952 10.1353C23.8129 10.0895 23.8283 10.0428 23.8413 9.99547C23.8544 9.94813 23.8651 9.90016 23.8734 9.85174C23.8817 9.80333 23.8876 9.75454 23.891 9.70554C23.8935 9.67083 23.8947 9.63605 23.8947 9.60125C23.8947 9.55212 23.8923 9.50302 23.8874 9.45413C23.8825 9.40524 23.8752 9.35663 23.8655 9.30847C23.8558 9.26032 23.8437 9.21268 23.8293 9.16574C23.8149 9.11879 23.7981 9.07259 23.7791 9.02733C23.7601 8.98205 23.7388 8.93775 23.7154 8.89461C23.692 8.85148 23.6665 8.80955 23.6389 8.76898C23.6113 8.72841 23.5817 8.68926 23.5502 8.65167C23.5188 8.61407 23.4856 8.57808 23.4506 8.54383C23.4155 8.5096 23.3788 8.47716 23.3406 8.44663C23.3023 8.41609 23.2626 8.38751 23.2215 8.36097C23.1804 8.33441 23.138 8.30994 23.0945 8.28764C23.051 8.26534 23.0064 8.24523 22.9609 8.22741C22.9154 8.20961 22.8691 8.1941 22.822 8.18096C22.775 8.16781 22.7273 8.15704 22.6792 8.14869C22.6311 8.14035 22.5826 8.13444 22.534 8.13097C22.4995 8.12851 22.4649 8.12728 22.4304 8.12727V8.1272Z" fill="url(#paint1_radial_1218_3304)"/>
<path d="M14.8663 4.00022C14.1975 3.99915 13.6007 4.00192 13.0646 4.00947L11.6273 4.04798C11.2015 4.06647 10.8253 4.09057 10.4877 4.12177C10.3188 4.13733 10.1595 4.15474 10.0085 4.17392C9.86488 4.19202 9.72161 4.21311 9.57882 4.23716C9.44287 4.26026 9.31385 4.28522 9.19014 4.31233C9.06644 4.33945 8.94828 4.36872 8.83428 4.40014C8.72284 4.43087 8.61226 4.46468 8.50268 4.50151C8.39531 4.53771 8.29055 4.57607 8.18711 4.61705C7.98021 4.69901 7.7784 4.79097 7.57059 4.89404C7.41068 4.97337 7.26294 5.05371 7.1226 5.13875C6.98226 5.22378 6.84931 5.3136 6.71914 5.41142C6.58508 5.51265 6.45587 5.62015 6.33193 5.73355C6.20237 5.85155 6.07004 5.98134 5.93255 6.12638C5.75978 6.30762 5.60965 6.47662 5.4764 6.64246C5.40977 6.72534 5.34738 6.80729 5.28861 6.88971C5.23049 6.97093 5.17492 7.05396 5.122 7.13866C5.06962 7.22262 5.02002 7.30812 4.97257 7.39608C4.92438 7.48556 4.87884 7.57644 4.836 7.6686C4.74834 7.85685 4.66654 8.05959 4.58489 8.28589C4.52432 8.45319 4.47008 8.62272 4.42229 8.79411C4.37353 8.96927 4.33017 9.15251 4.2915 9.3507C4.25283 9.54889 4.2191 9.76202 4.18944 9.99772C4.15748 10.2561 4.13196 10.5152 4.11288 10.7748C4.09131 11.0603 4.07344 11.3744 4.0588 11.724L4.02414 12.8865L4.0055 14.3036L4.00011 16.0164L4.0159 18.5072L4.0652 20.3943L4.10317 21.1315L4.15062 21.7423C4.16583 21.9069 4.18486 22.0712 4.2077 22.235C4.22849 22.3804 4.25083 22.5076 4.27486 22.6178C4.32363 22.8417 4.38129 23.0636 4.44771 23.283C4.51131 23.493 4.58404 23.7001 4.66569 23.9038C4.74596 24.1033 4.83377 24.2957 4.92928 24.4809C5.02479 24.6661 5.12801 24.844 5.23892 25.0149C5.34984 25.1858 5.46846 25.3498 5.59509 25.5067C5.72158 25.6636 5.85612 25.8138 5.99817 25.9568C6.14044 26.1001 6.29049 26.2364 6.44862 26.366C6.60863 26.497 6.77495 26.6201 6.94698 26.7349C7.10666 26.8417 7.26464 26.9394 7.42378 27.0292C7.58291 27.1189 7.74344 27.2003 7.90843 27.2743C8.07342 27.3484 8.24257 27.415 8.41926 27.4749C8.59596 27.5348 8.78005 27.5881 8.97462 27.6354C9.16919 27.6827 9.37516 27.7242 9.59314 27.7604C9.81113 27.7966 10.0441 27.8277 10.2931 27.8544C10.542 27.8811 10.8076 27.9033 11.093 27.9217C11.3784 27.9402 11.6834 27.955 12.0112 27.9669C12.5174 27.9852 13.2839 27.9959 14.1677 28L17.0288 27.9942L19.7381 27.9562L20.7683 27.9273L21.4394 27.8928C21.5834 27.8811 21.7244 27.8672 21.8604 27.851C21.9965 27.8347 22.1306 27.8161 22.2613 27.795C22.3919 27.7739 22.5196 27.7504 22.6451 27.7242C22.7691 27.6983 22.8925 27.6695 23.0151 27.6377C23.1365 27.6069 23.2562 27.5718 23.3747 27.5346C23.4932 27.4974 23.6104 27.4572 23.7269 27.4141C23.8441 27.3706 23.9603 27.3244 24.0752 27.2753C24.191 27.226 24.3066 27.1734 24.4226 27.1174C24.6008 27.0316 24.7442 26.9601 24.8702 26.8902C24.9886 26.8252 25.1027 26.7525 25.2117 26.6727C25.3192 26.5935 25.4261 26.5034 25.5494 26.3898C25.6726 26.2763 25.8123 26.1395 25.9852 25.9665C26.1372 25.8146 26.2653 25.6826 26.3759 25.5625C26.4864 25.4424 26.5795 25.3343 26.6612 25.2302C26.739 25.1314 26.8115 25.0285 26.8784 24.9219C26.9436 24.818 27.0037 24.71 27.0649 24.5902C27.1571 24.41 27.239 24.243 27.3124 24.082C27.3837 23.9268 27.4488 23.7688 27.5076 23.6084C27.5655 23.4493 27.6157 23.2875 27.6579 23.1235C27.7013 22.9549 27.7388 22.7768 27.7711 22.5814C27.8035 22.3861 27.8308 22.1735 27.8545 21.9361C27.8783 21.6987 27.8984 21.4364 27.9162 21.1416L27.9631 20.152L28.0035 18.9214L28.0323 17.5503L28.0434 16.1167L28.0177 13.301L27.9833 12.0398L27.9363 10.957L27.8777 10.1128C27.8565 9.87787 27.8335 9.69285 27.8092 9.56776C27.7822 9.42955 27.7521 9.29197 27.7189 9.15513C27.6865 9.02198 27.651 8.88964 27.6122 8.75821C27.5744 8.63017 27.5334 8.50311 27.4891 8.37717C27.4454 8.25277 27.399 8.13099 27.3505 8.01183C27.302 7.89267 27.2494 7.77628 27.1947 7.66236C27.14 7.54844 27.0827 7.43729 27.0226 7.32868C26.9624 7.22008 26.8997 7.11416 26.8342 7.01087C26.7686 6.90758 26.7004 6.80691 26.6293 6.70893C26.5586 6.61126 26.4849 6.51583 26.4082 6.42278C26.332 6.33023 26.2528 6.24012 26.1708 6.15257C26.089 6.06513 26.0044 5.98031 25.9172 5.89823C25.8299 5.81612 25.74 5.73663 25.6473 5.65975C25.5542 5.58263 25.4587 5.50842 25.361 5.43723C25.2623 5.36531 25.1614 5.29641 25.0585 5.23064C24.9541 5.16393 24.8479 5.10033 24.7397 5.03992C24.6298 4.9785 24.518 4.92025 24.4047 4.86523C24.2166 4.7738 24.0427 4.69269 23.8719 4.62075C23.704 4.54935 23.5329 4.48594 23.3591 4.43072C23.1842 4.37565 23.0022 4.32843 22.8019 4.28769C22.6017 4.24694 22.3833 4.21297 22.1361 4.18409C21.8889 4.1552 21.6129 4.13186 21.2973 4.11245C20.9816 4.09304 20.6266 4.07779 20.2212 4.06546L18.8435 4.03465L17.0999 4.01409L14.8671 4.00038L14.8663 4.00022ZM16.0259 6.1186L19.2458 6.13693L20.4606 6.16035C20.7951 6.16975 21.0503 6.18076 21.2 6.19347C21.3949 6.20988 21.5805 6.23044 21.7581 6.25509C21.9285 6.27862 22.098 6.30788 22.2664 6.34282C22.4282 6.37671 22.5825 6.41523 22.7301 6.45867C22.8778 6.50211 23.0188 6.55079 23.1542 6.60464C23.2895 6.65848 23.4189 6.71771 23.5435 6.78257C23.667 6.84693 23.7871 6.91777 23.9032 6.99477C24.0187 7.07141 24.1301 7.15399 24.2382 7.24295C24.3464 7.33192 24.4512 7.42728 24.5536 7.52926C24.6616 7.63686 24.7613 7.74647 24.8532 7.85955C24.9448 7.97192 25.0295 8.0897 25.1069 8.21225C25.1851 8.33655 25.2557 8.46555 25.3181 8.59854C25.3818 8.7341 25.4391 8.87737 25.4906 9.02965C25.5421 9.18194 25.5879 9.34377 25.6285 9.51669C25.671 9.70002 25.7066 9.88489 25.7352 10.0709C25.766 10.2681 25.7924 10.4784 25.8147 10.7035C25.8371 10.9287 25.8556 11.1688 25.8708 11.4256C25.883 11.6317 25.8936 11.9036 25.9026 12.2247L25.9252 13.3196L25.9424 16.0017L25.9228 18.6812L25.8992 19.773L25.8668 20.567C25.8443 20.9388 25.8206 21.2514 25.7922 21.5235C25.778 21.6595 25.7626 21.7854 25.7455 21.9034C25.7295 22.015 25.7105 22.1261 25.6886 22.2367C25.6685 22.3375 25.6453 22.4377 25.6189 22.5371C25.5935 22.6319 25.565 22.7258 25.5334 22.8187C25.5016 22.9121 25.4669 23.0045 25.4295 23.0957C25.39 23.1921 25.3482 23.2876 25.3044 23.382C25.2653 23.4664 25.2242 23.5484 25.1808 23.6283C25.1378 23.7074 25.0922 23.7849 25.044 23.8609C24.9962 23.9362 24.9462 24.0093 24.8938 24.0801C24.8417 24.1506 24.7871 24.2193 24.73 24.2859C24.6732 24.3522 24.6139 24.4164 24.5523 24.4784C24.4907 24.5404 24.4268 24.6003 24.3605 24.6581C24.2943 24.7158 24.2256 24.7713 24.1545 24.8247C24.0834 24.8782 24.0098 24.9295 23.9338 24.9786C23.8578 25.0278 23.7794 25.0749 23.6984 25.1199C23.6175 25.1649 23.534 25.2079 23.4481 25.2488C23.3607 25.2903 23.2721 25.3292 23.1824 25.3654C23.0897 25.4028 22.996 25.4376 22.9013 25.4698C22.7087 25.5354 22.5056 25.593 22.2918 25.6427C22.0689 25.6941 21.844 25.7362 21.6176 25.7689C21.5306 25.7816 21.3306 25.7935 21.044 25.8046L19.9521 25.8349L16.8564 25.8752L13.6162 25.8802L12.3438 25.8667L11.5175 25.841L10.9082 25.7981C10.719 25.7822 10.5431 25.7645 10.3783 25.7444C10.2134 25.7243 10.0599 25.7018 9.9155 25.6766C9.77864 25.6529 9.64261 25.6247 9.50765 25.5918C9.38458 25.5619 9.26278 25.527 9.14254 25.4872C9.02662 25.4487 8.91577 25.4064 8.80794 25.3598C8.7001 25.3132 8.59535 25.2621 8.49159 25.2063C8.38784 25.1506 8.28516 25.09 8.18133 25.024C8.10299 24.9743 8.02728 24.9239 7.95441 24.8705C7.88154 24.8171 7.81114 24.7639 7.74336 24.7081C7.67557 24.6524 7.61049 24.5949 7.54771 24.5357C7.48535 24.4769 7.42513 24.4158 7.36716 24.3526C7.30939 24.2896 7.25416 24.2247 7.20117 24.1575C7.14797 24.0901 7.09728 24.0207 7.0492 23.9496C7.0004 23.8773 6.95423 23.8033 6.91078 23.7277C6.86688 23.6515 6.82513 23.5726 6.78546 23.4913C6.74513 23.4084 6.70749 23.3242 6.67262 23.2388C6.63718 23.152 6.6036 23.0623 6.57202 22.9697C6.50886 22.7845 6.4534 22.5873 6.40518 22.377C6.35696 22.1667 6.31583 21.9433 6.28101 21.7053C6.2462 21.4673 6.21816 21.215 6.19582 20.9468C6.17934 20.7492 6.16624 20.4415 6.15623 20.0533L6.13528 18.6726L6.14298 15.1529L6.2036 11.7896L6.24982 10.6046L6.27601 10.2129C6.2851 10.1083 6.29449 10.0308 6.30412 9.98432C6.33586 9.83127 6.36782 9.68885 6.40087 9.55551C6.43173 9.42973 6.46608 9.30482 6.50385 9.18093C6.53975 9.06401 6.57756 8.95448 6.618 8.85072C6.657 8.75021 6.70046 8.6515 6.74826 8.55486C6.79493 8.46089 6.84508 8.37093 6.89953 8.28335C6.95399 8.19577 7.01276 8.11081 7.07685 8.02631C7.14093 7.94181 7.20995 7.85839 7.28505 7.77382C7.36015 7.68924 7.44126 7.60382 7.52922 7.51578C7.63174 7.41268 7.73849 7.31387 7.84919 7.21961C7.95372 7.13068 8.06273 7.04716 8.17578 6.96936C8.28693 6.89233 8.40093 6.82378 8.51963 6.76077C8.63833 6.69776 8.76172 6.64084 8.89151 6.58962C9.0213 6.53839 9.15764 6.49256 9.30206 6.45097C9.45379 6.40841 9.6072 6.3721 9.76191 6.34213C9.92459 6.31024 10.0974 6.28243 10.2818 6.25817C10.4663 6.23391 10.6626 6.21296 10.8724 6.19478C11.0187 6.18215 11.2709 6.1709 11.603 6.16143L12.8115 6.13755L16.0265 6.11791L16.0259 6.1186Z" fill="url(#paint2_radial_1218_3304)"/>
<defs>
<radialGradient id="paint0_radial_1218_3304" cx="0" cy="0" r="1" gradientUnits="userSpaceOnUse" gradientTransform="translate(7.8305 29.7496) rotate(-9.53101) scale(50.8151 30.8445)">
<stop stop-color="#FED576"/>
<stop offset="0.263" stop-color="#F47133"/>
<stop offset="0.609" stop-color="#BC3081"/>
<stop offset="1" stop-color="#4C63D2"/>
</radialGradient>
<radialGradient id="paint1_radial_1218_3304" cx="0" cy="0" r="1" gradientUnits="userSpaceOnUse" gradientTransform="translate(7.83058 29.7494) rotate(-9.53102) scale(50.8151 30.8445)">
<stop stop-color="#FED576"/>
<stop offset="0.263" stop-color="#F47133"/>
<stop offset="0.609" stop-color="#BC3081"/>
<stop offset="1" stop-color="#4C63D2"/>
</radialGradient>
<radialGradient id="paint2_radial_1218_3304" cx="0" cy="0" r="1" gradientUnits="userSpaceOnUse" gradientTransform="translate(7.83063 29.7495) rotate(-9.53101) scale(50.8151 30.8445)">
<stop stop-color="#FED576"/>
<stop offset="0.263" stop-color="#F47133"/>
<stop offset="0.609" stop-color="#BC3081"/>
<stop offset="1" stop-color="#4C63D2"/>
</radialGradient>
</defs>
</svg>
