<svg width="25" height="24" viewBox="0 0 25 24" fill="none" xmlns="http://www.w3.org/2000/svg">
<path d="M17.8629 12.4582C17.8358 9.97466 19.8949 8.76448 19.9943 8.71029C18.8292 7.01242 17.023 6.77761 16.3908 6.75955C14.8736 6.59699 13.4015 7.66267 12.6338 7.66267C11.8481 7.66267 10.656 6.76858 9.37355 6.79567C7.71181 6.8318 6.1765 7.78007 5.32757 9.27022C3.58455 12.2957 4.88504 16.739 6.55581 19.1865C7.39572 20.3876 8.37109 21.7243 9.65352 21.6701C10.9089 21.6159 11.3785 20.8753 12.8867 20.8753C14.3859 20.8753 14.8194 21.6701 16.1289 21.643C17.4745 21.6249 18.3235 20.4418 19.1273 19.2316C20.0936 17.8589 20.4819 16.5042 20.5 16.441C20.4639 16.4229 17.89 15.4385 17.8629 12.4582Z" fill="#0E1621"/>
<path d="M15.3973 5.15189C16.0747 4.31199 16.5353 3.16503 16.3998 2C15.4244 2.04516 14.2052 2.67734 13.5008 3.49918C12.8776 4.22168 12.3267 5.4138 12.4712 6.53367C13.564 6.61495 14.6929 5.98276 15.3973 5.15189Z" fill="#0E1621"/>
</svg>
